<?xml version="1.0" encoding="utf-8"?>
<svg xmlns="http://www.w3.org/2000/svg" xmlns:xlink="http://www.w3.org/1999/xlink" width="800" height="400" viewBox="0 0 3200 1600">
<defs>
  <clipPath id="clip300">
    <rect x="0" y="0" width="3200" height="1600"/>
  </clipPath>
</defs>
<path clip-path="url(#clip300)" d="M0 1600 L3200 1600 L3200 0 L0 0  Z" fill="#ffffff" fill-rule="evenodd" fill-opacity="1"/>
<defs>
  <clipPath id="clip301">
    <rect x="640" y="0" width="2241" height="1600"/>
  </clipPath>
</defs>
<path clip-path="url(#clip300)" d="M291.501 1380.71 L3089.76 1380.71 L3089.76 110.236 L291.501 110.236  Z" fill="#ffffff" fill-rule="evenodd" fill-opacity="1"/>
<defs>
  <clipPath id="clip302">
    <rect x="291" y="110" width="2799" height="1271"/>
  </clipPath>
</defs>
<polyline clip-path="url(#clip302)" style="stroke:#000000; stroke-linecap:round; stroke-linejoin:round; stroke-width:2; stroke-opacity:0.1; fill:none" points="370.698,1380.71 370.698,110.236 "/>
<polyline clip-path="url(#clip302)" style="stroke:#000000; stroke-linecap:round; stroke-linejoin:round; stroke-width:2; stroke-opacity:0.1; fill:none" points="842.103,1380.71 842.103,110.236 "/>
<polyline clip-path="url(#clip302)" style="stroke:#000000; stroke-linecap:round; stroke-linejoin:round; stroke-width:2; stroke-opacity:0.1; fill:none" points="1313.51,1380.71 1313.51,110.236 "/>
<polyline clip-path="url(#clip302)" style="stroke:#000000; stroke-linecap:round; stroke-linejoin:round; stroke-width:2; stroke-opacity:0.1; fill:none" points="1784.91,1380.71 1784.91,110.236 "/>
<polyline clip-path="url(#clip302)" style="stroke:#000000; stroke-linecap:round; stroke-linejoin:round; stroke-width:2; stroke-opacity:0.1; fill:none" points="2256.32,1380.71 2256.32,110.236 "/>
<polyline clip-path="url(#clip302)" style="stroke:#000000; stroke-linecap:round; stroke-linejoin:round; stroke-width:2; stroke-opacity:0.1; fill:none" points="2727.72,1380.71 2727.72,110.236 "/>
<polyline clip-path="url(#clip300)" style="stroke:#000000; stroke-linecap:round; stroke-linejoin:round; stroke-width:4; stroke-opacity:1; fill:none" points="291.501,1380.71 3089.76,1380.71 "/>
<polyline clip-path="url(#clip300)" style="stroke:#000000; stroke-linecap:round; stroke-linejoin:round; stroke-width:4; stroke-opacity:1; fill:none" points="370.698,1380.71 370.698,1361.81 "/>
<polyline clip-path="url(#clip300)" style="stroke:#000000; stroke-linecap:round; stroke-linejoin:round; stroke-width:4; stroke-opacity:1; fill:none" points="842.103,1380.71 842.103,1361.81 "/>
<polyline clip-path="url(#clip300)" style="stroke:#000000; stroke-linecap:round; stroke-linejoin:round; stroke-width:4; stroke-opacity:1; fill:none" points="1313.51,1380.71 1313.51,1361.81 "/>
<polyline clip-path="url(#clip300)" style="stroke:#000000; stroke-linecap:round; stroke-linejoin:round; stroke-width:4; stroke-opacity:1; fill:none" points="1784.91,1380.71 1784.91,1361.81 "/>
<polyline clip-path="url(#clip300)" style="stroke:#000000; stroke-linecap:round; stroke-linejoin:round; stroke-width:4; stroke-opacity:1; fill:none" points="2256.32,1380.71 2256.32,1361.81 "/>
<polyline clip-path="url(#clip300)" style="stroke:#000000; stroke-linecap:round; stroke-linejoin:round; stroke-width:4; stroke-opacity:1; fill:none" points="2727.72,1380.71 2727.72,1361.81 "/>
<path clip-path="url(#clip300)" d="M348.082 1418.03 Q344.471 1418.03 342.642 1421.59 Q340.837 1425.13 340.837 1432.26 Q340.837 1439.37 342.642 1442.93 Q344.471 1446.48 348.082 1446.48 Q351.716 1446.48 353.522 1442.93 Q355.35 1439.37 355.35 1432.26 Q355.35 1425.13 353.522 1421.59 Q351.716 1418.03 348.082 1418.03 M348.082 1414.32 Q353.892 1414.32 356.948 1418.93 Q360.026 1423.51 360.026 1432.26 Q360.026 1440.99 356.948 1445.6 Q353.892 1450.18 348.082 1450.18 Q342.272 1450.18 339.193 1445.6 Q336.138 1440.99 336.138 1432.26 Q336.138 1423.51 339.193 1418.93 Q342.272 1414.32 348.082 1414.32 Z" fill="#000000" fill-rule="nonzero" fill-opacity="1" /><path clip-path="url(#clip300)" d="M368.244 1443.63 L373.128 1443.63 L373.128 1449.51 L368.244 1449.51 L368.244 1443.63 Z" fill="#000000" fill-rule="nonzero" fill-opacity="1" /><path clip-path="url(#clip300)" d="M393.313 1418.03 Q389.702 1418.03 387.873 1421.59 Q386.068 1425.13 386.068 1432.26 Q386.068 1439.37 387.873 1442.93 Q389.702 1446.48 393.313 1446.48 Q396.947 1446.48 398.753 1442.93 Q400.582 1439.37 400.582 1432.26 Q400.582 1425.13 398.753 1421.59 Q396.947 1418.03 393.313 1418.03 M393.313 1414.32 Q399.123 1414.32 402.179 1418.93 Q405.258 1423.51 405.258 1432.26 Q405.258 1440.99 402.179 1445.6 Q399.123 1450.18 393.313 1450.18 Q387.503 1450.18 384.424 1445.6 Q381.369 1440.99 381.369 1432.26 Q381.369 1423.51 384.424 1418.93 Q387.503 1414.32 393.313 1414.32 Z" fill="#000000" fill-rule="nonzero" fill-opacity="1" /><path clip-path="url(#clip300)" d="M813.839 1445.57 L830.159 1445.57 L830.159 1449.51 L808.214 1449.51 L808.214 1445.57 Q810.876 1442.82 815.46 1438.19 Q820.066 1433.54 821.247 1432.19 Q823.492 1429.67 824.372 1427.93 Q825.274 1426.17 825.274 1424.48 Q825.274 1421.73 823.33 1419.99 Q821.409 1418.26 818.307 1418.26 Q816.108 1418.26 813.654 1419.02 Q811.223 1419.79 808.446 1421.34 L808.446 1416.61 Q811.27 1415.48 813.723 1414.9 Q816.177 1414.32 818.214 1414.32 Q823.585 1414.32 826.779 1417.01 Q829.973 1419.69 829.973 1424.18 Q829.973 1426.31 829.163 1428.23 Q828.376 1430.13 826.27 1432.73 Q825.691 1433.4 822.589 1436.61 Q819.487 1439.81 813.839 1445.57 Z" fill="#000000" fill-rule="nonzero" fill-opacity="1" /><path clip-path="url(#clip300)" d="M839.973 1443.63 L844.858 1443.63 L844.858 1449.51 L839.973 1449.51 L839.973 1443.63 Z" fill="#000000" fill-rule="nonzero" fill-opacity="1" /><path clip-path="url(#clip300)" d="M855.089 1414.95 L873.445 1414.95 L873.445 1418.88 L859.371 1418.88 L859.371 1427.36 Q860.39 1427.01 861.408 1426.85 Q862.427 1426.66 863.445 1426.66 Q869.232 1426.66 872.612 1429.83 Q875.992 1433 875.992 1438.42 Q875.992 1444 872.519 1447.1 Q869.047 1450.18 862.728 1450.18 Q860.552 1450.18 858.283 1449.81 Q856.038 1449.44 853.631 1448.7 L853.631 1444 Q855.714 1445.13 857.936 1445.69 Q860.158 1446.24 862.635 1446.24 Q866.64 1446.24 868.978 1444.14 Q871.316 1442.03 871.316 1438.42 Q871.316 1434.81 868.978 1432.7 Q866.64 1430.6 862.635 1430.6 Q860.76 1430.6 858.885 1431.01 Q857.033 1431.43 855.089 1432.31 L855.089 1414.95 Z" fill="#000000" fill-rule="nonzero" fill-opacity="1" /><path clip-path="url(#clip300)" d="M1280.67 1414.95 L1299.03 1414.95 L1299.03 1418.88 L1284.96 1418.88 L1284.96 1427.36 Q1285.97 1427.01 1286.99 1426.85 Q1288.01 1426.66 1289.03 1426.66 Q1294.82 1426.66 1298.2 1429.83 Q1301.58 1433 1301.58 1438.42 Q1301.58 1444 1298.1 1447.1 Q1294.63 1450.18 1288.31 1450.18 Q1286.14 1450.18 1283.87 1449.81 Q1281.62 1449.44 1279.21 1448.7 L1279.21 1444 Q1281.3 1445.13 1283.52 1445.69 Q1285.74 1446.24 1288.22 1446.24 Q1292.22 1446.24 1294.56 1444.14 Q1296.9 1442.03 1296.9 1438.42 Q1296.9 1434.81 1294.56 1432.7 Q1292.22 1430.6 1288.22 1430.6 Q1286.34 1430.6 1284.47 1431.01 Q1282.62 1431.43 1280.67 1432.31 L1280.67 1414.95 Z" fill="#000000" fill-rule="nonzero" fill-opacity="1" /><path clip-path="url(#clip300)" d="M1310.79 1443.63 L1315.67 1443.63 L1315.67 1449.51 L1310.79 1449.51 L1310.79 1443.63 Z" fill="#000000" fill-rule="nonzero" fill-opacity="1" /><path clip-path="url(#clip300)" d="M1335.86 1418.03 Q1332.25 1418.03 1330.42 1421.59 Q1328.61 1425.13 1328.61 1432.26 Q1328.61 1439.37 1330.42 1442.93 Q1332.25 1446.48 1335.86 1446.48 Q1339.49 1446.48 1341.3 1442.93 Q1343.13 1439.37 1343.13 1432.26 Q1343.13 1425.13 1341.3 1421.59 Q1339.49 1418.03 1335.86 1418.03 M1335.86 1414.32 Q1341.67 1414.32 1344.72 1418.93 Q1347.8 1423.51 1347.8 1432.26 Q1347.8 1440.99 1344.72 1445.6 Q1341.67 1450.18 1335.86 1450.18 Q1330.05 1450.18 1326.97 1445.6 Q1323.91 1440.99 1323.91 1432.26 Q1323.91 1423.51 1326.97 1418.93 Q1330.05 1414.32 1335.86 1414.32 Z" fill="#000000" fill-rule="nonzero" fill-opacity="1" /><path clip-path="url(#clip300)" d="M1751.23 1414.95 L1773.46 1414.95 L1773.46 1416.94 L1760.91 1449.51 L1756.02 1449.51 L1767.83 1418.88 L1751.23 1418.88 L1751.23 1414.95 Z" fill="#000000" fill-rule="nonzero" fill-opacity="1" /><path clip-path="url(#clip300)" d="M1782.58 1443.63 L1787.46 1443.63 L1787.46 1449.51 L1782.58 1449.51 L1782.58 1443.63 Z" fill="#000000" fill-rule="nonzero" fill-opacity="1" /><path clip-path="url(#clip300)" d="M1797.69 1414.95 L1816.05 1414.95 L1816.05 1418.88 L1801.97 1418.88 L1801.97 1427.36 Q1802.99 1427.01 1804.01 1426.85 Q1805.03 1426.66 1806.05 1426.66 Q1811.83 1426.66 1815.21 1429.83 Q1818.59 1433 1818.59 1438.42 Q1818.59 1444 1815.12 1447.1 Q1811.65 1450.18 1805.33 1450.18 Q1803.15 1450.18 1800.89 1449.81 Q1798.64 1449.44 1796.23 1448.7 L1796.23 1444 Q1798.32 1445.13 1800.54 1445.69 Q1802.76 1446.24 1805.24 1446.24 Q1809.24 1446.24 1811.58 1444.14 Q1813.92 1442.03 1813.92 1438.42 Q1813.92 1434.81 1811.58 1432.7 Q1809.24 1430.6 1805.24 1430.6 Q1803.36 1430.6 1801.49 1431.01 Q1799.64 1431.43 1797.69 1432.31 L1797.69 1414.95 Z" fill="#000000" fill-rule="nonzero" fill-opacity="1" /><path clip-path="url(#clip300)" d="M2208.39 1445.57 L2216.03 1445.57 L2216.03 1419.21 L2207.72 1420.87 L2207.72 1416.61 L2215.98 1414.95 L2220.66 1414.95 L2220.66 1445.57 L2228.3 1445.57 L2228.3 1449.51 L2208.39 1449.51 L2208.39 1445.57 Z" fill="#000000" fill-rule="nonzero" fill-opacity="1" /><path clip-path="url(#clip300)" d="M2247.74 1418.03 Q2244.13 1418.03 2242.3 1421.59 Q2240.5 1425.13 2240.5 1432.26 Q2240.5 1439.37 2242.3 1442.93 Q2244.13 1446.48 2247.74 1446.48 Q2251.38 1446.48 2253.18 1442.93 Q2255.01 1439.37 2255.01 1432.26 Q2255.01 1425.13 2253.18 1421.59 Q2251.38 1418.03 2247.74 1418.03 M2247.74 1414.32 Q2253.55 1414.32 2256.61 1418.93 Q2259.69 1423.51 2259.69 1432.26 Q2259.69 1440.99 2256.61 1445.6 Q2253.55 1450.18 2247.74 1450.18 Q2241.93 1450.18 2238.85 1445.6 Q2235.8 1440.99 2235.8 1432.26 Q2235.8 1423.51 2238.85 1418.93 Q2241.93 1414.32 2247.74 1414.32 Z" fill="#000000" fill-rule="nonzero" fill-opacity="1" /><path clip-path="url(#clip300)" d="M2267.9 1443.63 L2272.79 1443.63 L2272.79 1449.51 L2267.9 1449.51 L2267.9 1443.63 Z" fill="#000000" fill-rule="nonzero" fill-opacity="1" /><path clip-path="url(#clip300)" d="M2292.97 1418.03 Q2289.36 1418.03 2287.53 1421.59 Q2285.73 1425.13 2285.73 1432.26 Q2285.73 1439.37 2287.53 1442.93 Q2289.36 1446.48 2292.97 1446.48 Q2296.61 1446.48 2298.41 1442.93 Q2300.24 1439.37 2300.24 1432.26 Q2300.24 1425.13 2298.41 1421.59 Q2296.61 1418.03 2292.97 1418.03 M2292.97 1414.32 Q2298.78 1414.32 2301.84 1418.93 Q2304.92 1423.51 2304.92 1432.26 Q2304.92 1440.99 2301.84 1445.6 Q2298.78 1450.18 2292.97 1450.18 Q2287.16 1450.18 2284.09 1445.6 Q2281.03 1440.99 2281.03 1432.26 Q2281.03 1423.51 2284.09 1418.93 Q2287.16 1414.32 2292.97 1414.32 Z" fill="#000000" fill-rule="nonzero" fill-opacity="1" /><path clip-path="url(#clip300)" d="M2680.29 1445.57 L2687.93 1445.57 L2687.93 1419.21 L2679.62 1420.87 L2679.62 1416.61 L2687.89 1414.95 L2692.56 1414.95 L2692.56 1445.57 L2700.2 1445.57 L2700.2 1449.51 L2680.29 1449.51 L2680.29 1445.57 Z" fill="#000000" fill-rule="nonzero" fill-opacity="1" /><path clip-path="url(#clip300)" d="M2713.67 1445.57 L2729.99 1445.57 L2729.99 1449.51 L2708.05 1449.51 L2708.05 1445.57 Q2710.71 1442.82 2715.29 1438.19 Q2719.9 1433.54 2721.08 1432.19 Q2723.33 1429.67 2724.21 1427.93 Q2725.11 1426.17 2725.11 1424.48 Q2725.11 1421.73 2723.16 1419.99 Q2721.24 1418.26 2718.14 1418.26 Q2715.94 1418.26 2713.49 1419.02 Q2711.06 1419.79 2708.28 1421.34 L2708.28 1416.61 Q2711.1 1415.48 2713.56 1414.9 Q2716.01 1414.32 2718.05 1414.32 Q2723.42 1414.32 2726.61 1417.01 Q2729.81 1419.69 2729.81 1424.18 Q2729.81 1426.31 2729 1428.23 Q2728.21 1430.13 2726.1 1432.73 Q2725.53 1433.4 2722.42 1436.61 Q2719.32 1439.81 2713.67 1445.57 Z" fill="#000000" fill-rule="nonzero" fill-opacity="1" /><path clip-path="url(#clip300)" d="M2739.81 1443.63 L2744.69 1443.63 L2744.69 1449.51 L2739.81 1449.51 L2739.81 1443.63 Z" fill="#000000" fill-rule="nonzero" fill-opacity="1" /><path clip-path="url(#clip300)" d="M2754.92 1414.95 L2773.28 1414.95 L2773.28 1418.88 L2759.21 1418.88 L2759.21 1427.36 Q2760.22 1427.01 2761.24 1426.85 Q2762.26 1426.66 2763.28 1426.66 Q2769.07 1426.66 2772.45 1429.83 Q2775.83 1433 2775.83 1438.42 Q2775.83 1444 2772.35 1447.1 Q2768.88 1450.18 2762.56 1450.18 Q2760.39 1450.18 2758.12 1449.81 Q2755.87 1449.44 2753.47 1448.7 L2753.47 1444 Q2755.55 1445.13 2757.77 1445.69 Q2759.99 1446.24 2762.47 1446.24 Q2766.47 1446.24 2768.81 1444.14 Q2771.15 1442.03 2771.15 1438.42 Q2771.15 1434.81 2768.81 1432.7 Q2766.47 1430.6 2762.47 1430.6 Q2760.59 1430.6 2758.72 1431.01 Q2756.87 1431.43 2754.92 1432.31 L2754.92 1414.95 Z" fill="#000000" fill-rule="nonzero" fill-opacity="1" /><path clip-path="url(#clip300)" d="M1485.77 1490.05 L1515.81 1490.05 L1515.81 1495.46 L1492.2 1495.46 L1492.2 1509.53 L1514.83 1509.53 L1514.83 1514.94 L1492.2 1514.94 L1492.2 1532.16 L1516.39 1532.16 L1516.39 1537.57 L1485.77 1537.57 L1485.77 1490.05 Z" fill="#000000" fill-rule="nonzero" fill-opacity="1" /><path clip-path="url(#clip300)" d="M1526.7 1488.05 L1532.56 1488.05 L1532.56 1537.57 L1526.7 1537.57 L1526.7 1488.05 Z" fill="#000000" fill-rule="nonzero" fill-opacity="1" /><path clip-path="url(#clip300)" d="M1575.3 1518.28 L1575.3 1521.15 L1548.37 1521.15 Q1548.76 1527.2 1552 1530.38 Q1555.28 1533.53 1561.11 1533.53 Q1564.48 1533.53 1567.63 1532.7 Q1570.81 1531.87 1573.93 1530.22 L1573.93 1535.76 Q1570.78 1537.09 1567.47 1537.79 Q1564.16 1538.49 1560.76 1538.49 Q1552.23 1538.49 1547.23 1533.53 Q1542.26 1528.56 1542.26 1520.1 Q1542.26 1511.35 1546.97 1506.22 Q1551.72 1501.06 1559.74 1501.06 Q1566.93 1501.06 1571.1 1505.71 Q1575.3 1510.33 1575.3 1518.28 M1569.45 1516.56 Q1569.38 1511.76 1566.74 1508.89 Q1564.13 1506.03 1559.8 1506.03 Q1554.9 1506.03 1551.94 1508.8 Q1549.01 1511.57 1548.57 1516.6 L1569.45 1516.56 Z" fill="#000000" fill-rule="nonzero" fill-opacity="1" /><path clip-path="url(#clip300)" d="M1580.71 1501.92 L1586.92 1501.92 L1598.06 1531.84 L1609.2 1501.92 L1615.41 1501.92 L1602.04 1537.57 L1594.08 1537.57 L1580.71 1501.92 Z" fill="#000000" fill-rule="nonzero" fill-opacity="1" /><path clip-path="url(#clip300)" d="M1639.69 1519.65 Q1632.59 1519.65 1629.86 1521.28 Q1627.12 1522.9 1627.12 1526.81 Q1627.12 1529.93 1629.16 1531.78 Q1631.22 1533.59 1634.76 1533.59 Q1639.63 1533.59 1642.56 1530.16 Q1645.52 1526.69 1645.52 1520.96 L1645.52 1519.65 L1639.69 1519.65 M1651.37 1517.23 L1651.37 1537.57 L1645.52 1537.57 L1645.52 1532.16 Q1643.51 1535.41 1640.52 1536.97 Q1637.53 1538.49 1633.2 1538.49 Q1627.72 1538.49 1624.48 1535.44 Q1621.26 1532.35 1621.26 1527.2 Q1621.26 1521.18 1625.27 1518.12 Q1629.31 1515.07 1637.3 1515.07 L1645.52 1515.07 L1645.52 1514.5 Q1645.52 1510.45 1642.84 1508.26 Q1640.2 1506.03 1635.39 1506.03 Q1632.34 1506.03 1629.44 1506.76 Q1626.55 1507.49 1623.87 1508.96 L1623.87 1503.55 Q1627.09 1502.31 1630.11 1501.7 Q1633.13 1501.06 1636 1501.06 Q1643.73 1501.06 1647.55 1505.07 Q1651.37 1509.09 1651.37 1517.23 Z" fill="#000000" fill-rule="nonzero" fill-opacity="1" /><path clip-path="url(#clip300)" d="M1669.23 1491.8 L1669.23 1501.92 L1681.29 1501.92 L1681.29 1506.48 L1669.23 1506.48 L1669.23 1525.83 Q1669.23 1530.19 1670.41 1531.43 Q1671.62 1532.67 1675.28 1532.67 L1681.29 1532.67 L1681.29 1537.57 L1675.28 1537.57 Q1668.5 1537.57 1665.92 1535.06 Q1663.34 1532.51 1663.34 1525.83 L1663.34 1506.48 L1659.04 1506.48 L1659.04 1501.92 L1663.34 1501.92 L1663.34 1491.8 L1669.23 1491.8 Z" fill="#000000" fill-rule="nonzero" fill-opacity="1" /><path clip-path="url(#clip300)" d="M1688.99 1501.92 L1694.85 1501.92 L1694.85 1537.57 L1688.99 1537.57 L1688.99 1501.92 M1688.99 1488.05 L1694.85 1488.05 L1694.85 1495.46 L1688.99 1495.46 L1688.99 1488.05 Z" fill="#000000" fill-rule="nonzero" fill-opacity="1" /><path clip-path="url(#clip300)" d="M1720.92 1506.03 Q1716.21 1506.03 1713.47 1509.72 Q1710.73 1513.38 1710.73 1519.78 Q1710.73 1526.18 1713.44 1529.87 Q1716.18 1533.53 1720.92 1533.53 Q1725.6 1533.53 1728.33 1529.84 Q1731.07 1526.15 1731.07 1519.78 Q1731.07 1513.45 1728.33 1509.75 Q1725.6 1506.03 1720.92 1506.03 M1720.92 1501.06 Q1728.56 1501.06 1732.92 1506.03 Q1737.28 1510.99 1737.28 1519.78 Q1737.28 1528.53 1732.92 1533.53 Q1728.56 1538.49 1720.92 1538.49 Q1713.25 1538.49 1708.89 1533.53 Q1704.56 1528.53 1704.56 1519.78 Q1704.56 1510.99 1708.89 1506.03 Q1713.25 1501.06 1720.92 1501.06 Z" fill="#000000" fill-rule="nonzero" fill-opacity="1" /><path clip-path="url(#clip300)" d="M1776.62 1516.06 L1776.62 1537.57 L1770.76 1537.57 L1770.76 1516.25 Q1770.76 1511.19 1768.79 1508.67 Q1766.81 1506.16 1762.87 1506.16 Q1758.13 1506.16 1755.39 1509.18 Q1752.65 1512.2 1752.65 1517.42 L1752.65 1537.57 L1746.76 1537.57 L1746.76 1501.92 L1752.65 1501.92 L1752.65 1507.46 Q1754.75 1504.25 1757.58 1502.66 Q1760.45 1501.06 1764.17 1501.06 Q1770.32 1501.06 1773.47 1504.88 Q1776.62 1508.67 1776.62 1516.06 Z" fill="#000000" fill-rule="nonzero" fill-opacity="1" /><path clip-path="url(#clip300)" d="M1823.09 1488.11 Q1818.82 1495.43 1816.75 1502.59 Q1814.68 1509.75 1814.68 1517.11 Q1814.68 1524.46 1816.75 1531.68 Q1818.85 1538.88 1823.09 1546.17 L1817.99 1546.17 Q1813.22 1538.69 1810.83 1531.46 Q1808.48 1524.24 1808.48 1517.11 Q1808.48 1510.01 1810.83 1502.81 Q1813.19 1495.62 1817.99 1488.11 L1823.09 1488.11 Z" fill="#000000" fill-rule="nonzero" fill-opacity="1" /><path clip-path="url(#clip300)" d="M1852.5 1488.05 L1852.5 1492.92 L1846.89 1492.92 Q1843.74 1492.92 1842.5 1494.19 Q1841.29 1495.46 1841.29 1498.77 L1841.29 1501.92 L1850.94 1501.92 L1850.94 1506.48 L1841.29 1506.48 L1841.29 1537.57 L1835.4 1537.57 L1835.4 1506.48 L1829.8 1506.48 L1829.8 1501.92 L1835.4 1501.92 L1835.4 1499.44 Q1835.4 1493.49 1838.17 1490.78 Q1840.94 1488.05 1846.96 1488.05 L1852.5 1488.05 Z" fill="#000000" fill-rule="nonzero" fill-opacity="1" /><path clip-path="url(#clip300)" d="M1862.05 1491.8 L1862.05 1501.92 L1874.11 1501.92 L1874.11 1506.48 L1862.05 1506.48 L1862.05 1525.83 Q1862.05 1530.19 1863.22 1531.43 Q1864.43 1532.67 1868.09 1532.67 L1874.11 1532.67 L1874.11 1537.57 L1868.09 1537.57 Q1861.31 1537.57 1858.74 1535.06 Q1856.16 1532.51 1856.16 1525.83 L1856.16 1506.48 L1851.86 1506.48 L1851.86 1501.92 L1856.16 1501.92 L1856.16 1491.8 L1862.05 1491.8 Z" fill="#000000" fill-rule="nonzero" fill-opacity="1" /><path clip-path="url(#clip300)" d="M1880.89 1488.11 L1885.98 1488.11 Q1890.75 1495.62 1893.11 1502.81 Q1895.5 1510.01 1895.5 1517.11 Q1895.5 1524.24 1893.11 1531.46 Q1890.75 1538.69 1885.98 1546.17 L1880.89 1546.17 Q1885.12 1538.88 1887.19 1531.68 Q1889.29 1524.46 1889.29 1517.11 Q1889.29 1509.75 1887.19 1502.59 Q1885.12 1495.43 1880.89 1488.11 Z" fill="#000000" fill-rule="nonzero" fill-opacity="1" /><polyline clip-path="url(#clip302)" style="stroke:#000000; stroke-linecap:round; stroke-linejoin:round; stroke-width:2; stroke-opacity:0.1; fill:none" points="291.501,1344.75 3089.76,1344.75 "/>
<polyline clip-path="url(#clip302)" style="stroke:#000000; stroke-linecap:round; stroke-linejoin:round; stroke-width:2; stroke-opacity:0.1; fill:none" points="291.501,963.639 3089.76,963.639 "/>
<polyline clip-path="url(#clip302)" style="stroke:#000000; stroke-linecap:round; stroke-linejoin:round; stroke-width:2; stroke-opacity:0.1; fill:none" points="291.501,582.528 3089.76,582.528 "/>
<polyline clip-path="url(#clip302)" style="stroke:#000000; stroke-linecap:round; stroke-linejoin:round; stroke-width:2; stroke-opacity:0.1; fill:none" points="291.501,201.416 3089.76,201.416 "/>
<polyline clip-path="url(#clip300)" style="stroke:#000000; stroke-linecap:round; stroke-linejoin:round; stroke-width:4; stroke-opacity:1; fill:none" points="291.501,1380.71 291.501,110.236 "/>
<polyline clip-path="url(#clip300)" style="stroke:#000000; stroke-linecap:round; stroke-linejoin:round; stroke-width:4; stroke-opacity:1; fill:none" points="291.501,1344.75 310.399,1344.75 "/>
<polyline clip-path="url(#clip300)" style="stroke:#000000; stroke-linecap:round; stroke-linejoin:round; stroke-width:4; stroke-opacity:1; fill:none" points="291.501,963.639 310.399,963.639 "/>
<polyline clip-path="url(#clip300)" style="stroke:#000000; stroke-linecap:round; stroke-linejoin:round; stroke-width:4; stroke-opacity:1; fill:none" points="291.501,582.528 310.399,582.528 "/>
<polyline clip-path="url(#clip300)" style="stroke:#000000; stroke-linecap:round; stroke-linejoin:round; stroke-width:4; stroke-opacity:1; fill:none" points="291.501,201.416 310.399,201.416 "/>
<path clip-path="url(#clip300)" d="M231.557 1330.55 Q227.946 1330.55 226.117 1334.11 Q224.312 1337.66 224.312 1344.79 Q224.312 1351.89 226.117 1355.46 Q227.946 1359 231.557 1359 Q235.191 1359 236.997 1355.46 Q238.826 1351.89 238.826 1344.79 Q238.826 1337.66 236.997 1334.11 Q235.191 1330.55 231.557 1330.55 M231.557 1326.85 Q237.367 1326.85 240.423 1331.45 Q243.501 1336.04 243.501 1344.79 Q243.501 1353.51 240.423 1358.12 Q237.367 1362.7 231.557 1362.7 Q225.747 1362.7 222.668 1358.12 Q219.613 1353.51 219.613 1344.79 Q219.613 1336.04 222.668 1331.45 Q225.747 1326.85 231.557 1326.85 Z" fill="#000000" fill-rule="nonzero" fill-opacity="1" /><path clip-path="url(#clip300)" d="M191.442 946.359 L209.798 946.359 L209.798 950.294 L195.724 950.294 L195.724 958.767 Q196.742 958.419 197.761 958.257 Q198.779 958.072 199.798 958.072 Q205.585 958.072 208.965 961.244 Q212.344 964.415 212.344 969.831 Q212.344 975.41 208.872 978.512 Q205.4 981.591 199.08 981.591 Q196.905 981.591 194.636 981.22 Q192.391 980.85 189.983 980.109 L189.983 975.41 Q192.067 976.544 194.289 977.1 Q196.511 977.655 198.988 977.655 Q202.992 977.655 205.33 975.549 Q207.668 973.443 207.668 969.831 Q207.668 966.22 205.33 964.114 Q202.992 962.007 198.988 962.007 Q197.113 962.007 195.238 962.424 Q193.386 962.841 191.442 963.72 L191.442 946.359 Z" fill="#000000" fill-rule="nonzero" fill-opacity="1" /><path clip-path="url(#clip300)" d="M231.557 949.438 Q227.946 949.438 226.117 953.003 Q224.312 956.544 224.312 963.674 Q224.312 970.78 226.117 974.345 Q227.946 977.887 231.557 977.887 Q235.191 977.887 236.997 974.345 Q238.826 970.78 238.826 963.674 Q238.826 956.544 236.997 953.003 Q235.191 949.438 231.557 949.438 M231.557 945.734 Q237.367 945.734 240.423 950.341 Q243.501 954.924 243.501 963.674 Q243.501 972.401 240.423 977.007 Q237.367 981.591 231.557 981.591 Q225.747 981.591 222.668 977.007 Q219.613 972.401 219.613 963.674 Q219.613 954.924 222.668 950.341 Q225.747 945.734 231.557 945.734 Z" fill="#000000" fill-rule="nonzero" fill-opacity="1" /><path clip-path="url(#clip300)" d="M162.044 595.873 L169.682 595.873 L169.682 569.507 L161.372 571.174 L161.372 566.914 L169.636 565.248 L174.312 565.248 L174.312 595.873 L181.951 595.873 L181.951 599.808 L162.044 599.808 L162.044 595.873 Z" fill="#000000" fill-rule="nonzero" fill-opacity="1" /><path clip-path="url(#clip300)" d="M201.395 568.326 Q197.784 568.326 195.955 571.891 Q194.15 575.433 194.15 582.562 Q194.15 589.669 195.955 593.234 Q197.784 596.775 201.395 596.775 Q205.029 596.775 206.835 593.234 Q208.664 589.669 208.664 582.562 Q208.664 575.433 206.835 571.891 Q205.029 568.326 201.395 568.326 M201.395 564.623 Q207.205 564.623 210.261 569.229 Q213.34 573.812 213.34 582.562 Q213.34 591.289 210.261 595.896 Q207.205 600.479 201.395 600.479 Q195.585 600.479 192.506 595.896 Q189.451 591.289 189.451 582.562 Q189.451 573.812 192.506 569.229 Q195.585 564.623 201.395 564.623 Z" fill="#000000" fill-rule="nonzero" fill-opacity="1" /><path clip-path="url(#clip300)" d="M231.557 568.326 Q227.946 568.326 226.117 571.891 Q224.312 575.433 224.312 582.562 Q224.312 589.669 226.117 593.234 Q227.946 596.775 231.557 596.775 Q235.191 596.775 236.997 593.234 Q238.826 589.669 238.826 582.562 Q238.826 575.433 236.997 571.891 Q235.191 568.326 231.557 568.326 M231.557 564.623 Q237.367 564.623 240.423 569.229 Q243.501 573.812 243.501 582.562 Q243.501 591.289 240.423 595.896 Q237.367 600.479 231.557 600.479 Q225.747 600.479 222.668 595.896 Q219.613 591.289 219.613 582.562 Q219.613 573.812 222.668 569.229 Q225.747 564.623 231.557 564.623 Z" fill="#000000" fill-rule="nonzero" fill-opacity="1" /><path clip-path="url(#clip300)" d="M162.044 214.761 L169.682 214.761 L169.682 188.395 L161.372 190.062 L161.372 185.803 L169.636 184.136 L174.312 184.136 L174.312 214.761 L181.951 214.761 L181.951 218.696 L162.044 218.696 L162.044 214.761 Z" fill="#000000" fill-rule="nonzero" fill-opacity="1" /><path clip-path="url(#clip300)" d="M191.442 184.136 L209.798 184.136 L209.798 188.071 L195.724 188.071 L195.724 196.543 Q196.742 196.196 197.761 196.034 Q198.779 195.849 199.798 195.849 Q205.585 195.849 208.965 199.02 Q212.344 202.191 212.344 207.608 Q212.344 213.187 208.872 216.289 Q205.4 219.367 199.08 219.367 Q196.905 219.367 194.636 218.997 Q192.391 218.627 189.983 217.886 L189.983 213.187 Q192.067 214.321 194.289 214.877 Q196.511 215.432 198.988 215.432 Q202.992 215.432 205.33 213.326 Q207.668 211.219 207.668 207.608 Q207.668 203.997 205.33 201.891 Q202.992 199.784 198.988 199.784 Q197.113 199.784 195.238 200.201 Q193.386 200.617 191.442 201.497 L191.442 184.136 Z" fill="#000000" fill-rule="nonzero" fill-opacity="1" /><path clip-path="url(#clip300)" d="M231.557 187.215 Q227.946 187.215 226.117 190.78 Q224.312 194.321 224.312 201.451 Q224.312 208.557 226.117 212.122 Q227.946 215.664 231.557 215.664 Q235.191 215.664 236.997 212.122 Q238.826 208.557 238.826 201.451 Q238.826 194.321 236.997 190.78 Q235.191 187.215 231.557 187.215 M231.557 183.511 Q237.367 183.511 240.423 188.117 Q243.501 192.701 243.501 201.451 Q243.501 210.178 240.423 214.784 Q237.367 219.367 231.557 219.367 Q225.747 219.367 222.668 214.784 Q219.613 210.178 219.613 201.451 Q219.613 192.701 222.668 188.117 Q225.747 183.511 231.557 183.511 Z" fill="#000000" fill-rule="nonzero" fill-opacity="1" /><path clip-path="url(#clip300)" d="M55.2566 1050.23 L62.036 1050.23 Q59.0123 1053.48 57.5164 1057.17 Q56.0204 1060.83 56.0204 1064.97 Q56.0204 1073.11 61.0175 1077.44 Q65.9828 1081.77 75.404 1081.77 Q84.7934 1081.77 89.7905 1077.44 Q94.7558 1073.11 94.7558 1064.97 Q94.7558 1060.83 93.2598 1057.17 Q91.7639 1053.48 88.7402 1050.23 L95.456 1050.23 Q97.7477 1053.6 98.8935 1057.39 Q100.039 1061.15 100.039 1065.35 Q100.039 1076.14 93.4508 1082.35 Q86.8305 1088.55 75.404 1088.55 Q63.9458 1088.55 57.3572 1082.35 Q50.7369 1076.14 50.7369 1065.35 Q50.7369 1061.08 51.8827 1057.33 Q52.9967 1053.54 55.2566 1050.23 Z" fill="#000000" fill-rule="nonzero" fill-opacity="1" /><path clip-path="url(#clip300)" d="M67.5742 1026.74 Q67.5742 1031.45 71.2663 1034.19 Q74.9266 1036.93 81.3241 1036.93 Q87.7217 1036.93 91.4138 1034.22 Q95.0741 1031.48 95.0741 1026.74 Q95.0741 1022.06 91.3819 1019.32 Q87.6898 1016.59 81.3241 1016.59 Q74.9903 1016.59 71.2981 1019.32 Q67.5742 1022.06 67.5742 1026.74 M62.609 1026.74 Q62.609 1019.1 67.5742 1014.74 Q72.5395 1010.38 81.3241 1010.38 Q90.077 1010.38 95.0741 1014.74 Q100.039 1019.1 100.039 1026.74 Q100.039 1034.41 95.0741 1038.77 Q90.077 1043.1 81.3241 1043.1 Q72.5395 1043.1 67.5742 1038.77 Q62.609 1034.41 62.609 1026.74 Z" fill="#000000" fill-rule="nonzero" fill-opacity="1" /><path clip-path="url(#clip300)" d="M64.5187 977.948 L70.0568 977.948 Q68.7837 980.43 68.1471 983.104 Q67.5106 985.777 67.5106 988.642 Q67.5106 993.002 68.8473 995.199 Q70.1841 997.363 72.8577 997.363 Q74.8948 997.363 76.0724 995.803 Q77.2183 994.244 78.2686 989.533 L78.7142 987.528 Q80.051 981.29 82.5018 978.68 Q84.9208 976.038 89.2813 976.038 Q94.2465 976.038 97.1429 979.985 Q100.039 983.9 100.039 990.774 Q100.039 993.639 99.4664 996.758 Q98.9253 999.846 97.8113 1003.28 L91.7639 1003.28 Q93.4508 1000.04 94.3102 996.886 Q95.1377 993.735 95.1377 990.647 Q95.1377 986.509 93.7373 984.281 Q92.305 982.053 89.7269 982.053 Q87.3397 982.053 86.0666 983.677 Q84.7934 985.268 83.6158 990.711 L83.1384 992.748 Q81.9925 998.191 79.6372 1000.61 Q77.2501 1003.03 73.1124 1003.03 Q68.0835 1003.03 65.3462 999.464 Q62.609 995.899 62.609 989.342 Q62.609 986.096 63.0864 983.231 Q63.5638 980.367 64.5187 977.948 Z" fill="#000000" fill-rule="nonzero" fill-opacity="1" /><path clip-path="url(#clip300)" d="M53.3469 960.919 L63.4683 960.919 L63.4683 948.856 L68.0198 948.856 L68.0198 960.919 L87.3716 960.919 Q91.7321 960.919 92.9734 959.742 Q94.2147 958.532 94.2147 954.872 L94.2147 948.856 L99.1163 948.856 L99.1163 954.872 Q99.1163 961.651 96.6018 964.229 Q94.0555 966.808 87.3716 966.808 L68.0198 966.808 L68.0198 971.104 L63.4683 971.104 L63.4683 966.808 L53.3469 966.808 L53.3469 960.919 Z" fill="#000000" fill-rule="nonzero" fill-opacity="1" /><path clip-path="url(#clip300)" d="M49.6547 906.365 Q56.9753 910.63 64.1367 912.699 Q71.2981 914.768 78.6505 914.768 Q86.0029 914.768 93.228 912.699 Q100.421 910.598 107.71 906.365 L107.71 911.458 Q100.23 916.232 93.0052 918.619 Q85.7801 920.975 78.6505 920.975 Q71.5528 920.975 64.3595 918.619 Q57.1663 916.264 49.6547 911.458 L49.6547 906.365 Z" fill="#000000" fill-rule="nonzero" fill-opacity="1" /><path clip-path="url(#clip300)" d="M51.5963 901.336 L51.5963 861.137 L57.0071 861.137 L57.0071 878.006 L99.1163 878.006 L99.1163 884.467 L57.0071 884.467 L57.0071 901.336 L51.5963 901.336 Z" fill="#000000" fill-rule="nonzero" fill-opacity="1" /><path clip-path="url(#clip300)" d="M77.6002 825.553 L99.1163 825.553 L99.1163 831.409 L77.7912 831.409 Q72.7304 831.409 70.216 833.382 Q67.7015 835.356 67.7015 839.302 Q67.7015 844.045 70.7252 846.782 Q73.7489 849.519 78.9688 849.519 L99.1163 849.519 L99.1163 855.408 L49.5911 855.408 L49.5911 849.519 L69.0065 849.519 Q65.7918 847.419 64.2004 844.586 Q62.609 841.721 62.609 837.998 Q62.609 831.855 66.4284 828.704 Q70.216 825.553 77.6002 825.553 Z" fill="#000000" fill-rule="nonzero" fill-opacity="1" /><path clip-path="url(#clip300)" d="M67.5742 800.058 Q67.5742 804.769 71.2663 807.506 Q74.9266 810.243 81.3241 810.243 Q87.7217 810.243 91.4138 807.538 Q95.0741 804.8 95.0741 800.058 Q95.0741 795.379 91.3819 792.642 Q87.6898 789.905 81.3241 789.905 Q74.9903 789.905 71.2981 792.642 Q67.5742 795.379 67.5742 800.058 M62.609 800.058 Q62.609 792.419 67.5742 788.059 Q72.5395 783.698 81.3241 783.698 Q90.077 783.698 95.0741 788.059 Q100.039 792.419 100.039 800.058 Q100.039 807.729 95.0741 812.089 Q90.077 816.418 81.3241 816.418 Q72.5395 816.418 67.5742 812.089 Q62.609 807.729 62.609 800.058 Z" fill="#000000" fill-rule="nonzero" fill-opacity="1" /><path clip-path="url(#clip300)" d="M85.0481 774.595 L63.4683 774.595 L63.4683 768.739 L84.8253 768.739 Q89.886 768.739 92.4323 766.765 Q94.9467 764.792 94.9467 760.845 Q94.9467 756.103 91.923 753.365 Q88.8993 750.596 83.6794 750.596 L63.4683 750.596 L63.4683 744.74 L99.1163 744.74 L99.1163 750.596 L93.6418 750.596 Q96.8883 752.729 98.4797 755.562 Q100.039 758.363 100.039 762.086 Q100.039 768.229 96.2199 771.412 Q92.4005 774.595 85.0481 774.595 M62.609 759.858 L62.609 759.858 Z" fill="#000000" fill-rule="nonzero" fill-opacity="1" /><path clip-path="url(#clip300)" d="M64.5187 709.951 L70.0568 709.951 Q68.7837 712.434 68.1471 715.108 Q67.5106 717.781 67.5106 720.646 Q67.5106 725.006 68.8473 727.202 Q70.1841 729.367 72.8577 729.367 Q74.8948 729.367 76.0724 727.807 Q77.2183 726.248 78.2686 721.537 L78.7142 719.532 Q80.051 713.293 82.5018 710.683 Q84.9208 708.042 89.2813 708.042 Q94.2465 708.042 97.1429 711.988 Q100.039 715.903 100.039 722.778 Q100.039 725.643 99.4664 728.762 Q98.9253 731.849 97.8113 735.287 L91.7639 735.287 Q93.4508 732.04 94.3102 728.889 Q95.1377 725.738 95.1377 722.651 Q95.1377 718.513 93.7373 716.285 Q92.305 714.057 89.7269 714.057 Q87.3397 714.057 86.0666 715.68 Q84.7934 717.272 83.6158 722.715 L83.1384 724.752 Q81.9925 730.194 79.6372 732.613 Q77.2501 735.032 73.1124 735.032 Q68.0835 735.032 65.3462 731.467 Q62.609 727.903 62.609 721.346 Q62.609 718.099 63.0864 715.235 Q63.5638 712.37 64.5187 709.951 Z" fill="#000000" fill-rule="nonzero" fill-opacity="1" /><path clip-path="url(#clip300)" d="M81.1968 682.515 Q81.1968 689.613 82.8201 692.35 Q84.4433 695.087 88.3582 695.087 Q91.4774 695.087 93.3235 693.05 Q95.1377 690.982 95.1377 687.449 Q95.1377 682.579 91.7002 679.651 Q88.2309 676.691 82.5018 676.691 L81.1968 676.691 L81.1968 682.515 M78.7779 670.834 L99.1163 670.834 L99.1163 676.691 L93.7054 676.691 Q96.9519 678.696 98.5115 681.688 Q100.039 684.679 100.039 689.008 Q100.039 694.483 96.9838 697.729 Q93.8964 700.944 88.7402 700.944 Q82.7246 700.944 79.669 696.933 Q76.6135 692.891 76.6135 684.902 L76.6135 676.691 L76.0406 676.691 Q71.9984 676.691 69.8022 679.364 Q67.5742 682.006 67.5742 686.812 Q67.5742 689.868 68.3063 692.764 Q69.0383 695.66 70.5024 698.334 L65.0916 698.334 Q63.8503 695.119 63.2455 692.096 Q62.609 689.072 62.609 686.207 Q62.609 678.473 66.6194 674.653 Q70.6297 670.834 78.7779 670.834 Z" fill="#000000" fill-rule="nonzero" fill-opacity="1" /><path clip-path="url(#clip300)" d="M77.6002 629.139 L99.1163 629.139 L99.1163 634.995 L77.7912 634.995 Q72.7304 634.995 70.216 636.968 Q67.7015 638.942 67.7015 642.889 Q67.7015 647.631 70.7252 650.368 Q73.7489 653.106 78.9688 653.106 L99.1163 653.106 L99.1163 658.994 L63.4683 658.994 L63.4683 653.106 L69.0065 653.106 Q65.7918 651.005 64.2004 648.172 Q62.609 645.308 62.609 641.584 Q62.609 635.441 66.4284 632.29 Q70.216 629.139 77.6002 629.139 Z" fill="#000000" fill-rule="nonzero" fill-opacity="1" /><path clip-path="url(#clip300)" d="M68.8792 594 L49.5911 594 L49.5911 588.144 L99.1163 588.144 L99.1163 594 L93.7691 594 Q96.9519 595.846 98.5115 598.679 Q100.039 601.48 100.039 605.426 Q100.039 611.888 94.8831 615.962 Q89.7269 620.004 81.3241 620.004 Q72.9214 620.004 67.7652 615.962 Q62.609 611.888 62.609 605.426 Q62.609 601.48 64.1686 598.679 Q65.6963 595.846 68.8792 594 M81.3241 613.956 Q87.7853 613.956 91.4774 611.315 Q95.1377 608.641 95.1377 603.994 Q95.1377 599.347 91.4774 596.674 Q87.7853 594 81.3241 594 Q74.8629 594 71.2027 596.674 Q67.5106 599.347 67.5106 603.994 Q67.5106 608.641 71.2027 611.315 Q74.8629 613.956 81.3241 613.956 Z" fill="#000000" fill-rule="nonzero" fill-opacity="1" /><path clip-path="url(#clip300)" d="M51.5963 555.838 L51.5963 549.376 L80.4648 549.376 Q88.1036 549.376 91.4774 546.607 Q94.8194 543.838 94.8194 537.632 Q94.8194 531.457 91.4774 528.688 Q88.1036 525.919 80.4648 525.919 L51.5963 525.919 L51.5963 519.458 L81.2605 519.458 Q90.5544 519.458 95.2969 524.073 Q100.039 528.656 100.039 537.632 Q100.039 546.639 95.2969 551.254 Q90.5544 555.838 81.2605 555.838 L51.5963 555.838 Z" fill="#000000" fill-rule="nonzero" fill-opacity="1" /><path clip-path="url(#clip300)" d="M53.1559 478.908 L59.4261 478.908 Q57.6755 482.568 56.8162 485.815 Q55.9568 489.061 55.9568 492.085 Q55.9568 497.337 57.9938 500.201 Q60.0308 503.034 63.7866 503.034 Q66.9376 503.034 68.5609 501.156 Q70.1523 499.246 71.139 493.963 L71.9347 490.08 Q73.3033 482.887 76.7727 479.481 Q80.2101 476.043 86.0029 476.043 Q92.9097 476.043 96.4745 480.69 Q100.039 485.306 100.039 494.249 Q100.039 497.623 99.2754 501.443 Q98.5115 505.23 97.0156 509.304 L90.3953 509.304 Q92.5914 505.389 93.7054 501.634 Q94.8194 497.878 94.8194 494.249 Q94.8194 488.743 92.6551 485.751 Q90.4908 482.759 86.4804 482.759 Q82.9792 482.759 81.0058 484.924 Q79.0325 487.056 78.0458 491.958 L77.2819 495.873 Q75.8496 503.066 72.7941 506.281 Q69.7385 509.495 64.2959 509.495 Q57.9938 509.495 54.3654 505.071 Q50.7369 500.615 50.7369 492.817 Q50.7369 489.475 51.3417 486.006 Q51.9464 482.536 53.1559 478.908 Z" fill="#000000" fill-rule="nonzero" fill-opacity="1" /><path clip-path="url(#clip300)" d="M56.8798 459.588 L93.8327 459.588 L93.8327 451.822 Q93.8327 441.987 89.3768 437.435 Q84.9208 432.852 75.3085 432.852 Q65.76 432.852 61.3358 437.435 Q56.8798 441.987 56.8798 451.822 L56.8798 459.588 M51.5963 466.017 L51.5963 452.809 Q51.5963 438.995 57.3572 432.534 Q63.0864 426.073 75.3085 426.073 Q87.5944 426.073 93.3553 432.566 Q99.1163 439.059 99.1163 452.809 L99.1163 466.017 L51.5963 466.017 Z" fill="#000000" fill-rule="nonzero" fill-opacity="1" /><path clip-path="url(#clip300)" d="M49.6547 417.002 L49.6547 411.909 Q57.1663 407.135 64.3595 404.779 Q71.5528 402.392 78.6505 402.392 Q85.7801 402.392 93.0052 404.779 Q100.23 407.135 107.71 411.909 L107.71 417.002 Q100.421 412.768 93.228 410.699 Q86.0029 408.599 78.6505 408.599 Q71.2981 408.599 64.1367 410.699 Q56.9753 412.768 49.6547 417.002 Z" fill="#000000" fill-rule="nonzero" fill-opacity="1" /><circle clip-path="url(#clip302)" cx="370.698" cy="1344.75" r="14.4" fill="#009af9" fill-rule="evenodd" fill-opacity="1" stroke="#000000" stroke-opacity="1" stroke-width="3.2"/>
<circle clip-path="url(#clip302)" cx="417.838" cy="450.622" r="14.4" fill="#009af9" fill-rule="evenodd" fill-opacity="1" stroke="#000000" stroke-opacity="1" stroke-width="3.2"/>
<circle clip-path="url(#clip302)" cx="464.979" cy="449.643" r="14.4" fill="#009af9" fill-rule="evenodd" fill-opacity="1" stroke="#000000" stroke-opacity="1" stroke-width="3.2"/>
<circle clip-path="url(#clip302)" cx="512.119" cy="448.665" r="14.4" fill="#009af9" fill-rule="evenodd" fill-opacity="1" stroke="#000000" stroke-opacity="1" stroke-width="3.2"/>
<circle clip-path="url(#clip302)" cx="559.26" cy="447.686" r="14.4" fill="#009af9" fill-rule="evenodd" fill-opacity="1" stroke="#000000" stroke-opacity="1" stroke-width="3.2"/>
<circle clip-path="url(#clip302)" cx="606.4" cy="446.707" r="14.4" fill="#009af9" fill-rule="evenodd" fill-opacity="1" stroke="#000000" stroke-opacity="1" stroke-width="3.2"/>
<circle clip-path="url(#clip302)" cx="653.541" cy="445.728" r="14.4" fill="#009af9" fill-rule="evenodd" fill-opacity="1" stroke="#000000" stroke-opacity="1" stroke-width="3.2"/>
<circle clip-path="url(#clip302)" cx="700.681" cy="444.75" r="14.4" fill="#009af9" fill-rule="evenodd" fill-opacity="1" stroke="#000000" stroke-opacity="1" stroke-width="3.2"/>
<circle clip-path="url(#clip302)" cx="747.822" cy="443.771" r="14.4" fill="#009af9" fill-rule="evenodd" fill-opacity="1" stroke="#000000" stroke-opacity="1" stroke-width="3.2"/>
<circle clip-path="url(#clip302)" cx="794.962" cy="442.792" r="14.4" fill="#009af9" fill-rule="evenodd" fill-opacity="1" stroke="#000000" stroke-opacity="1" stroke-width="3.2"/>
<circle clip-path="url(#clip302)" cx="842.103" cy="441.814" r="14.4" fill="#009af9" fill-rule="evenodd" fill-opacity="1" stroke="#000000" stroke-opacity="1" stroke-width="3.2"/>
<circle clip-path="url(#clip302)" cx="889.243" cy="440.835" r="14.4" fill="#009af9" fill-rule="evenodd" fill-opacity="1" stroke="#000000" stroke-opacity="1" stroke-width="3.2"/>
<circle clip-path="url(#clip302)" cx="936.384" cy="439.856" r="14.4" fill="#009af9" fill-rule="evenodd" fill-opacity="1" stroke="#000000" stroke-opacity="1" stroke-width="3.2"/>
<circle clip-path="url(#clip302)" cx="983.525" cy="438.878" r="14.4" fill="#009af9" fill-rule="evenodd" fill-opacity="1" stroke="#000000" stroke-opacity="1" stroke-width="3.2"/>
<circle clip-path="url(#clip302)" cx="1030.67" cy="437.899" r="14.4" fill="#009af9" fill-rule="evenodd" fill-opacity="1" stroke="#000000" stroke-opacity="1" stroke-width="3.2"/>
<circle clip-path="url(#clip302)" cx="1077.81" cy="436.92" r="14.4" fill="#009af9" fill-rule="evenodd" fill-opacity="1" stroke="#000000" stroke-opacity="1" stroke-width="3.2"/>
<circle clip-path="url(#clip302)" cx="1124.95" cy="435.941" r="14.4" fill="#009af9" fill-rule="evenodd" fill-opacity="1" stroke="#000000" stroke-opacity="1" stroke-width="3.2"/>
<circle clip-path="url(#clip302)" cx="1172.09" cy="434.963" r="14.4" fill="#009af9" fill-rule="evenodd" fill-opacity="1" stroke="#000000" stroke-opacity="1" stroke-width="3.2"/>
<circle clip-path="url(#clip302)" cx="1219.23" cy="433.984" r="14.4" fill="#009af9" fill-rule="evenodd" fill-opacity="1" stroke="#000000" stroke-opacity="1" stroke-width="3.2"/>
<circle clip-path="url(#clip302)" cx="1266.37" cy="433.005" r="14.4" fill="#009af9" fill-rule="evenodd" fill-opacity="1" stroke="#000000" stroke-opacity="1" stroke-width="3.2"/>
<circle clip-path="url(#clip302)" cx="1313.51" cy="432.027" r="14.4" fill="#009af9" fill-rule="evenodd" fill-opacity="1" stroke="#000000" stroke-opacity="1" stroke-width="3.2"/>
<circle clip-path="url(#clip302)" cx="1360.65" cy="429.577" r="14.4" fill="#009af9" fill-rule="evenodd" fill-opacity="1" stroke="#000000" stroke-opacity="1" stroke-width="3.2"/>
<circle clip-path="url(#clip302)" cx="1407.79" cy="427.127" r="14.4" fill="#009af9" fill-rule="evenodd" fill-opacity="1" stroke="#000000" stroke-opacity="1" stroke-width="3.2"/>
<circle clip-path="url(#clip302)" cx="1454.93" cy="424.677" r="14.4" fill="#009af9" fill-rule="evenodd" fill-opacity="1" stroke="#000000" stroke-opacity="1" stroke-width="3.2"/>
<circle clip-path="url(#clip302)" cx="1502.07" cy="422.227" r="14.4" fill="#009af9" fill-rule="evenodd" fill-opacity="1" stroke="#000000" stroke-opacity="1" stroke-width="3.2"/>
<circle clip-path="url(#clip302)" cx="1549.21" cy="419.777" r="14.4" fill="#009af9" fill-rule="evenodd" fill-opacity="1" stroke="#000000" stroke-opacity="1" stroke-width="3.2"/>
<circle clip-path="url(#clip302)" cx="1596.35" cy="417.327" r="14.4" fill="#009af9" fill-rule="evenodd" fill-opacity="1" stroke="#000000" stroke-opacity="1" stroke-width="3.2"/>
<circle clip-path="url(#clip302)" cx="1643.49" cy="414.877" r="14.4" fill="#009af9" fill-rule="evenodd" fill-opacity="1" stroke="#000000" stroke-opacity="1" stroke-width="3.2"/>
<circle clip-path="url(#clip302)" cx="1690.63" cy="412.427" r="14.4" fill="#009af9" fill-rule="evenodd" fill-opacity="1" stroke="#000000" stroke-opacity="1" stroke-width="3.2"/>
<circle clip-path="url(#clip302)" cx="1737.77" cy="409.977" r="14.4" fill="#009af9" fill-rule="evenodd" fill-opacity="1" stroke="#000000" stroke-opacity="1" stroke-width="3.2"/>
<circle clip-path="url(#clip302)" cx="1784.91" cy="407.527" r="14.4" fill="#009af9" fill-rule="evenodd" fill-opacity="1" stroke="#000000" stroke-opacity="1" stroke-width="3.2"/>
<circle clip-path="url(#clip302)" cx="1832.05" cy="405.077" r="14.4" fill="#009af9" fill-rule="evenodd" fill-opacity="1" stroke="#000000" stroke-opacity="1" stroke-width="3.2"/>
<circle clip-path="url(#clip302)" cx="1879.19" cy="402.627" r="14.4" fill="#009af9" fill-rule="evenodd" fill-opacity="1" stroke="#000000" stroke-opacity="1" stroke-width="3.2"/>
<circle clip-path="url(#clip302)" cx="1926.34" cy="400.177" r="14.4" fill="#009af9" fill-rule="evenodd" fill-opacity="1" stroke="#000000" stroke-opacity="1" stroke-width="3.2"/>
<circle clip-path="url(#clip302)" cx="1973.48" cy="397.727" r="14.4" fill="#009af9" fill-rule="evenodd" fill-opacity="1" stroke="#000000" stroke-opacity="1" stroke-width="3.2"/>
<circle clip-path="url(#clip302)" cx="2020.62" cy="386.293" r="14.4" fill="#009af9" fill-rule="evenodd" fill-opacity="1" stroke="#000000" stroke-opacity="1" stroke-width="3.2"/>
<circle clip-path="url(#clip302)" cx="2067.76" cy="374.86" r="14.4" fill="#009af9" fill-rule="evenodd" fill-opacity="1" stroke="#000000" stroke-opacity="1" stroke-width="3.2"/>
<circle clip-path="url(#clip302)" cx="2114.9" cy="363.427" r="14.4" fill="#009af9" fill-rule="evenodd" fill-opacity="1" stroke="#000000" stroke-opacity="1" stroke-width="3.2"/>
<circle clip-path="url(#clip302)" cx="2162.04" cy="351.993" r="14.4" fill="#009af9" fill-rule="evenodd" fill-opacity="1" stroke="#000000" stroke-opacity="1" stroke-width="3.2"/>
<circle clip-path="url(#clip302)" cx="2209.18" cy="340.56" r="14.4" fill="#009af9" fill-rule="evenodd" fill-opacity="1" stroke="#000000" stroke-opacity="1" stroke-width="3.2"/>
<circle clip-path="url(#clip302)" cx="2256.32" cy="329.127" r="14.4" fill="#009af9" fill-rule="evenodd" fill-opacity="1" stroke="#000000" stroke-opacity="1" stroke-width="3.2"/>
<circle clip-path="url(#clip302)" cx="2303.46" cy="317.693" r="14.4" fill="#009af9" fill-rule="evenodd" fill-opacity="1" stroke="#000000" stroke-opacity="1" stroke-width="3.2"/>
<circle clip-path="url(#clip302)" cx="2350.6" cy="306.26" r="14.4" fill="#009af9" fill-rule="evenodd" fill-opacity="1" stroke="#000000" stroke-opacity="1" stroke-width="3.2"/>
<circle clip-path="url(#clip302)" cx="2397.74" cy="294.827" r="14.4" fill="#009af9" fill-rule="evenodd" fill-opacity="1" stroke="#000000" stroke-opacity="1" stroke-width="3.2"/>
<circle clip-path="url(#clip302)" cx="2444.88" cy="283.393" r="14.4" fill="#009af9" fill-rule="evenodd" fill-opacity="1" stroke="#000000" stroke-opacity="1" stroke-width="3.2"/>
<circle clip-path="url(#clip302)" cx="2492.02" cy="271.96" r="14.4" fill="#009af9" fill-rule="evenodd" fill-opacity="1" stroke="#000000" stroke-opacity="1" stroke-width="3.2"/>
<circle clip-path="url(#clip302)" cx="2539.16" cy="260.526" r="14.4" fill="#009af9" fill-rule="evenodd" fill-opacity="1" stroke="#000000" stroke-opacity="1" stroke-width="3.2"/>
<circle clip-path="url(#clip302)" cx="2586.3" cy="249.093" r="14.4" fill="#009af9" fill-rule="evenodd" fill-opacity="1" stroke="#000000" stroke-opacity="1" stroke-width="3.2"/>
<circle clip-path="url(#clip302)" cx="2633.44" cy="237.66" r="14.4" fill="#009af9" fill-rule="evenodd" fill-opacity="1" stroke="#000000" stroke-opacity="1" stroke-width="3.2"/>
<circle clip-path="url(#clip302)" cx="2680.58" cy="226.226" r="14.4" fill="#009af9" fill-rule="evenodd" fill-opacity="1" stroke="#000000" stroke-opacity="1" stroke-width="3.2"/>
<circle clip-path="url(#clip302)" cx="2727.72" cy="214.793" r="14.4" fill="#009af9" fill-rule="evenodd" fill-opacity="1" stroke="#000000" stroke-opacity="1" stroke-width="3.2"/>
<circle clip-path="url(#clip302)" cx="2774.86" cy="203.36" r="14.4" fill="#009af9" fill-rule="evenodd" fill-opacity="1" stroke="#000000" stroke-opacity="1" stroke-width="3.2"/>
<circle clip-path="url(#clip302)" cx="2822.01" cy="191.926" r="14.4" fill="#009af9" fill-rule="evenodd" fill-opacity="1" stroke="#000000" stroke-opacity="1" stroke-width="3.2"/>
<circle clip-path="url(#clip302)" cx="2869.15" cy="180.493" r="14.4" fill="#009af9" fill-rule="evenodd" fill-opacity="1" stroke="#000000" stroke-opacity="1" stroke-width="3.2"/>
<circle clip-path="url(#clip302)" cx="2916.29" cy="169.06" r="14.4" fill="#009af9" fill-rule="evenodd" fill-opacity="1" stroke="#000000" stroke-opacity="1" stroke-width="3.2"/>
<circle clip-path="url(#clip302)" cx="2963.43" cy="157.626" r="14.4" fill="#009af9" fill-rule="evenodd" fill-opacity="1" stroke="#000000" stroke-opacity="1" stroke-width="3.2"/>
<circle clip-path="url(#clip302)" cx="3010.57" cy="146.193" r="14.4" fill="#009af9" fill-rule="evenodd" fill-opacity="1" stroke="#000000" stroke-opacity="1" stroke-width="3.2"/>
<path clip-path="url(#clip300)" d="M1907.27 1338.36 L2996.49 1338.36 L2996.49 1131 L1907.27 1131  Z" fill="#ffffff" fill-rule="evenodd" fill-opacity="1"/>
<polyline clip-path="url(#clip300)" style="stroke:#000000; stroke-linecap:round; stroke-linejoin:round; stroke-width:4; stroke-opacity:1; fill:none" points="1907.27,1338.36 2996.49,1338.36 2996.49,1131 1907.27,1131 1907.27,1338.36 "/>
<circle clip-path="url(#clip300)" cx="2031.64" cy="1234.68" r="20.48" fill="#009af9" fill-rule="evenodd" fill-opacity="1" stroke="#000000" stroke-opacity="1" stroke-width="4.55111"/>
<path clip-path="url(#clip300)" d="M2163.41 1192.75 L2163.41 1200.11 L2172.18 1200.11 L2172.18 1203.42 L2163.41 1203.42 L2163.41 1217.5 Q2163.41 1220.67 2164.27 1221.57 Q2165.15 1222.47 2167.81 1222.47 L2172.18 1222.47 L2172.18 1226.04 L2167.81 1226.04 Q2162.88 1226.04 2161 1224.21 Q2159.13 1222.36 2159.13 1217.5 L2159.13 1203.42 L2156 1203.42 L2156 1200.11 L2159.13 1200.11 L2159.13 1192.75 L2163.41 1192.75 Z" fill="#000000" fill-rule="nonzero" fill-opacity="1" /><path clip-path="url(#clip300)" d="M2175.31 1200.11 L2179.57 1200.11 L2184.89 1220.34 L2190.19 1200.11 L2195.22 1200.11 L2200.54 1220.34 L2205.84 1200.11 L2210.1 1200.11 L2203.32 1226.04 L2198.29 1226.04 L2192.72 1204.79 L2187.11 1226.04 L2182.09 1226.04 L2175.31 1200.11 Z" fill="#000000" fill-rule="nonzero" fill-opacity="1" /><path clip-path="url(#clip300)" d="M2226.6 1203.1 Q2223.18 1203.1 2221.19 1205.78 Q2219.2 1208.45 2219.2 1213.1 Q2219.2 1217.75 2221.16 1220.44 Q2223.16 1223.1 2226.6 1223.1 Q2230.01 1223.1 2232 1220.41 Q2233.99 1217.73 2233.99 1213.1 Q2233.99 1208.49 2232 1205.81 Q2230.01 1203.1 2226.6 1203.1 M2226.6 1199.49 Q2232.16 1199.49 2235.33 1203.1 Q2238.5 1206.71 2238.5 1213.1 Q2238.5 1219.46 2235.33 1223.1 Q2232.16 1226.71 2226.6 1226.71 Q2221.03 1226.71 2217.85 1223.1 Q2214.71 1219.46 2214.71 1213.1 Q2214.71 1206.71 2217.85 1203.1 Q2221.03 1199.49 2226.6 1199.49 Z" fill="#000000" fill-rule="nonzero" fill-opacity="1" /><path clip-path="url(#clip300)" d="M2277.16 1200.88 L2277.16 1204.9 Q2275.35 1203.98 2273.41 1203.52 Q2271.47 1203.05 2269.38 1203.05 Q2266.21 1203.05 2264.61 1204.02 Q2263.04 1205 2263.04 1206.94 Q2263.04 1208.42 2264.17 1209.28 Q2265.31 1210.11 2268.73 1210.88 L2270.19 1211.2 Q2274.73 1212.17 2276.63 1213.96 Q2278.55 1215.71 2278.55 1218.89 Q2278.55 1222.5 2275.68 1224.6 Q2272.83 1226.71 2267.83 1226.71 Q2265.75 1226.71 2263.48 1226.29 Q2261.23 1225.9 2258.73 1225.09 L2258.73 1220.69 Q2261.09 1221.92 2263.39 1222.54 Q2265.68 1223.15 2267.92 1223.15 Q2270.93 1223.15 2272.55 1222.13 Q2274.17 1221.08 2274.17 1219.21 Q2274.17 1217.47 2272.99 1216.55 Q2271.84 1215.62 2267.88 1214.77 L2266.4 1214.42 Q2262.44 1213.59 2260.68 1211.87 Q2258.92 1210.14 2258.92 1207.13 Q2258.92 1203.47 2261.51 1201.48 Q2264.1 1199.49 2268.87 1199.49 Q2271.23 1199.49 2273.32 1199.84 Q2275.4 1200.18 2277.16 1200.88 Z" fill="#000000" fill-rule="nonzero" fill-opacity="1" /><path clip-path="url(#clip300)" d="M2289.54 1192.75 L2289.54 1200.11 L2298.32 1200.11 L2298.32 1203.42 L2289.54 1203.42 L2289.54 1217.5 Q2289.54 1220.67 2290.4 1221.57 Q2291.28 1222.47 2293.94 1222.47 L2298.32 1222.47 L2298.32 1226.04 L2293.94 1226.04 Q2289.01 1226.04 2287.14 1224.21 Q2285.26 1222.36 2285.26 1217.5 L2285.26 1203.42 L2282.14 1203.42 L2282.14 1200.11 L2285.26 1200.11 L2285.26 1192.75 L2289.54 1192.75 Z" fill="#000000" fill-rule="nonzero" fill-opacity="1" /><path clip-path="url(#clip300)" d="M2313.96 1203.1 Q2310.54 1203.1 2308.55 1205.78 Q2306.56 1208.45 2306.56 1213.1 Q2306.56 1217.75 2308.53 1220.44 Q2310.52 1223.1 2313.96 1223.1 Q2317.37 1223.1 2319.36 1220.41 Q2321.35 1217.73 2321.35 1213.1 Q2321.35 1208.49 2319.36 1205.81 Q2317.37 1203.1 2313.96 1203.1 M2313.96 1199.49 Q2319.52 1199.49 2322.69 1203.1 Q2325.86 1206.71 2325.86 1213.1 Q2325.86 1219.46 2322.69 1223.1 Q2319.52 1226.71 2313.96 1226.71 Q2308.39 1226.71 2305.21 1223.1 Q2302.07 1219.46 2302.07 1213.1 Q2302.07 1206.71 2305.21 1203.1 Q2308.39 1199.49 2313.96 1199.49 Z" fill="#000000" fill-rule="nonzero" fill-opacity="1" /><path clip-path="url(#clip300)" d="M2347.95 1204.09 Q2347.23 1203.68 2346.37 1203.49 Q2345.54 1203.28 2344.52 1203.28 Q2340.91 1203.28 2338.96 1205.65 Q2337.04 1207.98 2337.04 1212.38 L2337.04 1226.04 L2332.76 1226.04 L2332.76 1200.11 L2337.04 1200.11 L2337.04 1204.14 Q2338.39 1201.78 2340.54 1200.65 Q2342.69 1199.49 2345.77 1199.49 Q2346.21 1199.49 2346.74 1199.56 Q2347.27 1199.6 2347.92 1199.72 L2347.95 1204.09 Z" fill="#000000" fill-rule="nonzero" fill-opacity="1" /><path clip-path="url(#clip300)" d="M2363.2 1228.45 Q2361.4 1233.08 2359.68 1234.49 Q2357.97 1235.9 2355.1 1235.9 L2351.7 1235.9 L2351.7 1232.33 L2354.2 1232.33 Q2355.96 1232.33 2356.93 1231.5 Q2357.9 1230.67 2359.08 1227.57 L2359.84 1225.62 L2349.36 1200.11 L2353.87 1200.11 L2361.97 1220.39 L2370.08 1200.11 L2374.59 1200.11 L2363.2 1228.45 Z" fill="#000000" fill-rule="nonzero" fill-opacity="1" /><path clip-path="url(#clip300)" d="M2381.56 1220.16 L2386.44 1220.16 L2386.44 1224.14 L2382.65 1231.55 L2379.66 1231.55 L2381.56 1224.14 L2381.56 1220.16 Z" fill="#000000" fill-rule="nonzero" fill-opacity="1" /><path clip-path="url(#clip300)" d="M2432.16 1210.39 L2432.16 1226.04 L2427.9 1226.04 L2427.9 1210.53 Q2427.9 1206.85 2426.46 1205.02 Q2425.03 1203.19 2422.16 1203.19 Q2418.71 1203.19 2416.72 1205.39 Q2414.73 1207.59 2414.73 1211.39 L2414.73 1226.04 L2410.45 1226.04 L2410.45 1200.11 L2414.73 1200.11 L2414.73 1204.14 Q2416.26 1201.8 2418.32 1200.65 Q2420.4 1199.49 2423.11 1199.49 Q2427.58 1199.49 2429.87 1202.27 Q2432.16 1205.02 2432.16 1210.39 Z" fill="#000000" fill-rule="nonzero" fill-opacity="1" /><path clip-path="url(#clip300)" d="M2450.7 1203.1 Q2447.27 1203.1 2445.28 1205.78 Q2443.29 1208.45 2443.29 1213.1 Q2443.29 1217.75 2445.26 1220.44 Q2447.25 1223.1 2450.7 1223.1 Q2454.1 1223.1 2456.09 1220.41 Q2458.08 1217.73 2458.08 1213.1 Q2458.08 1208.49 2456.09 1205.81 Q2454.1 1203.1 2450.7 1203.1 M2450.7 1199.49 Q2456.26 1199.49 2459.43 1203.1 Q2462.6 1206.71 2462.6 1213.1 Q2462.6 1219.46 2459.43 1223.1 Q2456.26 1226.71 2450.7 1226.71 Q2445.12 1226.71 2441.95 1223.1 Q2438.8 1219.46 2438.8 1213.1 Q2438.8 1206.71 2441.95 1203.1 Q2445.12 1199.49 2450.7 1199.49 Z" fill="#000000" fill-rule="nonzero" fill-opacity="1" /><path clip-path="url(#clip300)" d="M2503.34 1213.1 Q2503.34 1208.4 2501.39 1205.74 Q2499.47 1203.05 2496.09 1203.05 Q2492.71 1203.05 2490.77 1205.74 Q2488.85 1208.4 2488.85 1213.1 Q2488.85 1217.8 2490.77 1220.48 Q2492.71 1223.15 2496.09 1223.15 Q2499.47 1223.15 2501.39 1220.48 Q2503.34 1217.8 2503.34 1213.1 M2488.85 1204.05 Q2490.19 1201.73 2492.23 1200.62 Q2494.29 1199.49 2497.14 1199.49 Q2501.86 1199.49 2504.8 1203.24 Q2507.76 1206.99 2507.76 1213.1 Q2507.76 1219.21 2504.8 1222.96 Q2501.86 1226.71 2497.14 1226.71 Q2494.29 1226.71 2492.23 1225.6 Q2490.19 1224.46 2488.85 1222.15 L2488.85 1226.04 L2484.57 1226.04 L2484.57 1190.02 L2488.85 1190.02 L2488.85 1204.05 Z" fill="#000000" fill-rule="nonzero" fill-opacity="1" /><path clip-path="url(#clip300)" d="M2526.6 1213.01 Q2521.44 1213.01 2519.45 1214.19 Q2517.46 1215.37 2517.46 1218.21 Q2517.46 1220.48 2518.94 1221.83 Q2520.45 1223.15 2523.01 1223.15 Q2526.56 1223.15 2528.69 1220.65 Q2530.84 1218.12 2530.84 1213.96 L2530.84 1213.01 L2526.6 1213.01 M2535.1 1211.25 L2535.1 1226.04 L2530.84 1226.04 L2530.84 1222.1 Q2529.38 1224.46 2527.2 1225.6 Q2525.03 1226.71 2521.88 1226.71 Q2517.9 1226.71 2515.54 1224.49 Q2513.2 1222.24 2513.2 1218.49 Q2513.2 1214.12 2516.12 1211.9 Q2519.06 1209.67 2524.87 1209.67 L2530.84 1209.67 L2530.84 1209.26 Q2530.84 1206.32 2528.89 1204.72 Q2526.97 1203.1 2523.48 1203.1 Q2521.26 1203.1 2519.15 1203.63 Q2517.04 1204.16 2515.1 1205.23 L2515.1 1201.29 Q2517.44 1200.39 2519.64 1199.95 Q2521.83 1199.49 2523.92 1199.49 Q2529.54 1199.49 2532.32 1202.4 Q2535.1 1205.32 2535.1 1211.25 Z" fill="#000000" fill-rule="nonzero" fill-opacity="1" /><path clip-path="url(#clip300)" d="M2560.4 1200.88 L2560.4 1204.9 Q2558.59 1203.98 2556.65 1203.52 Q2554.7 1203.05 2552.62 1203.05 Q2549.45 1203.05 2547.85 1204.02 Q2546.28 1205 2546.28 1206.94 Q2546.28 1208.42 2547.41 1209.28 Q2548.55 1210.11 2551.97 1210.88 L2553.43 1211.2 Q2557.97 1212.17 2559.87 1213.96 Q2561.79 1215.71 2561.79 1218.89 Q2561.79 1222.5 2558.92 1224.6 Q2556.07 1226.71 2551.07 1226.71 Q2548.99 1226.71 2546.72 1226.29 Q2544.47 1225.9 2541.97 1225.09 L2541.97 1220.69 Q2544.33 1221.92 2546.63 1222.54 Q2548.92 1223.15 2551.16 1223.15 Q2554.17 1223.15 2555.79 1222.13 Q2557.41 1221.08 2557.41 1219.21 Q2557.41 1217.47 2556.23 1216.55 Q2555.07 1215.62 2551.12 1214.77 L2549.63 1214.42 Q2545.68 1213.59 2543.92 1211.87 Q2542.16 1210.14 2542.16 1207.13 Q2542.16 1203.47 2544.75 1201.48 Q2547.34 1199.49 2552.11 1199.49 Q2554.47 1199.49 2556.56 1199.84 Q2558.64 1200.18 2560.4 1200.88 Z" fill="#000000" fill-rule="nonzero" fill-opacity="1" /><path clip-path="url(#clip300)" d="M2590.75 1212.01 L2590.75 1214.09 L2571.16 1214.09 Q2571.44 1218.49 2573.8 1220.81 Q2576.19 1223.1 2580.42 1223.1 Q2582.88 1223.1 2585.17 1222.5 Q2587.48 1221.9 2589.75 1220.69 L2589.75 1224.72 Q2587.46 1225.69 2585.05 1226.2 Q2582.64 1226.71 2580.17 1226.71 Q2573.96 1226.71 2570.33 1223.1 Q2566.72 1219.49 2566.72 1213.33 Q2566.72 1206.96 2570.14 1203.24 Q2573.59 1199.49 2579.43 1199.49 Q2584.66 1199.49 2587.69 1202.87 Q2590.75 1206.22 2590.75 1212.01 M2586.49 1210.76 Q2586.44 1207.27 2584.52 1205.18 Q2582.62 1203.1 2579.47 1203.1 Q2575.91 1203.1 2573.76 1205.11 Q2571.63 1207.13 2571.3 1210.78 L2586.49 1210.76 Z" fill="#000000" fill-rule="nonzero" fill-opacity="1" /><path clip-path="url(#clip300)" d="M2617.92 1205.09 Q2619.52 1202.22 2621.74 1200.85 Q2623.96 1199.49 2626.97 1199.49 Q2631.02 1199.49 2633.22 1202.34 Q2635.42 1205.16 2635.42 1210.39 L2635.42 1226.04 L2631.14 1226.04 L2631.14 1210.53 Q2631.14 1206.8 2629.82 1205 Q2628.5 1203.19 2625.79 1203.19 Q2622.48 1203.19 2620.56 1205.39 Q2618.64 1207.59 2618.64 1211.39 L2618.64 1226.04 L2614.36 1226.04 L2614.36 1210.53 Q2614.36 1206.78 2613.04 1205 Q2611.72 1203.19 2608.96 1203.19 Q2605.7 1203.19 2603.78 1205.41 Q2601.86 1207.61 2601.86 1211.39 L2601.86 1226.04 L2597.57 1226.04 L2597.57 1200.11 L2601.86 1200.11 L2601.86 1204.14 Q2603.32 1201.76 2605.35 1200.62 Q2607.39 1199.49 2610.19 1199.49 Q2613.01 1199.49 2614.98 1200.92 Q2616.97 1202.36 2617.92 1205.09 Z" fill="#000000" fill-rule="nonzero" fill-opacity="1" /><path clip-path="url(#clip300)" d="M2666.09 1212.01 L2666.09 1214.09 L2646.51 1214.09 Q2646.79 1218.49 2649.15 1220.81 Q2651.53 1223.1 2655.77 1223.1 Q2658.22 1223.1 2660.51 1222.5 Q2662.83 1221.9 2665.1 1220.69 L2665.1 1224.72 Q2662.81 1225.69 2660.4 1226.2 Q2657.99 1226.71 2655.51 1226.71 Q2649.31 1226.71 2645.68 1223.1 Q2642.06 1219.49 2642.06 1213.33 Q2642.06 1206.96 2645.49 1203.24 Q2648.94 1199.49 2654.77 1199.49 Q2660 1199.49 2663.04 1202.87 Q2666.09 1206.22 2666.09 1212.01 M2661.83 1210.76 Q2661.79 1207.27 2659.87 1205.18 Q2657.97 1203.1 2654.82 1203.1 Q2651.25 1203.1 2649.1 1205.11 Q2646.97 1207.13 2646.65 1210.78 L2661.83 1210.76 Z" fill="#000000" fill-rule="nonzero" fill-opacity="1" /><path clip-path="url(#clip300)" d="M2694.63 1210.39 L2694.63 1226.04 L2690.37 1226.04 L2690.37 1210.53 Q2690.37 1206.85 2688.94 1205.02 Q2687.5 1203.19 2684.63 1203.19 Q2681.19 1203.19 2679.19 1205.39 Q2677.2 1207.59 2677.2 1211.39 L2677.2 1226.04 L2672.92 1226.04 L2672.92 1200.11 L2677.2 1200.11 L2677.2 1204.14 Q2678.73 1201.8 2680.79 1200.65 Q2682.87 1199.49 2685.58 1199.49 Q2690.05 1199.49 2692.34 1202.27 Q2694.63 1205.02 2694.63 1210.39 Z" fill="#000000" fill-rule="nonzero" fill-opacity="1" /><path clip-path="url(#clip300)" d="M2707.34 1192.75 L2707.34 1200.11 L2716.12 1200.11 L2716.12 1203.42 L2707.34 1203.42 L2707.34 1217.5 Q2707.34 1220.67 2708.2 1221.57 Q2709.08 1222.47 2711.74 1222.47 L2716.12 1222.47 L2716.12 1226.04 L2711.74 1226.04 Q2706.81 1226.04 2704.93 1224.21 Q2703.06 1222.36 2703.06 1217.5 L2703.06 1203.42 L2699.94 1203.42 L2699.94 1200.11 L2703.06 1200.11 L2703.06 1192.75 L2707.34 1192.75 Z" fill="#000000" fill-rule="nonzero" fill-opacity="1" /><path clip-path="url(#clip300)" d="M2722.81 1220.16 L2727.69 1220.16 L2727.69 1224.14 L2723.89 1231.55 L2720.91 1231.55 L2722.81 1224.14 L2722.81 1220.16 Z" fill="#000000" fill-rule="nonzero" fill-opacity="1" /><path clip-path="url(#clip300)" d="M2772.76 1192.61 L2772.76 1197.17 Q2770.1 1195.9 2767.74 1195.27 Q2765.37 1194.65 2763.18 1194.65 Q2759.36 1194.65 2757.27 1196.13 Q2755.21 1197.61 2755.21 1200.34 Q2755.21 1202.64 2756.58 1203.82 Q2757.97 1204.97 2761.81 1205.69 L2764.63 1206.27 Q2769.87 1207.27 2772.34 1209.79 Q2774.84 1212.29 2774.84 1216.5 Q2774.84 1221.52 2771.46 1224.12 Q2768.11 1226.71 2761.6 1226.71 Q2759.15 1226.71 2756.37 1226.15 Q2753.62 1225.6 2750.65 1224.51 L2750.65 1219.7 Q2753.5 1221.29 2756.23 1222.1 Q2758.96 1222.91 2761.6 1222.91 Q2765.61 1222.91 2767.78 1221.34 Q2769.96 1219.77 2769.96 1216.85 Q2769.96 1214.3 2768.38 1212.87 Q2766.83 1211.43 2763.27 1210.71 L2760.42 1210.16 Q2755.19 1209.12 2752.85 1206.9 Q2750.51 1204.67 2750.51 1200.71 Q2750.51 1196.13 2753.73 1193.49 Q2756.97 1190.85 2762.64 1190.85 Q2765.07 1190.85 2767.6 1191.29 Q2770.12 1191.73 2772.76 1192.61 Z" fill="#000000" fill-rule="nonzero" fill-opacity="1" /><path clip-path="url(#clip300)" d="M2786.16 1192.75 L2786.16 1200.11 L2794.93 1200.11 L2794.93 1203.42 L2786.16 1203.42 L2786.16 1217.5 Q2786.16 1220.67 2787.02 1221.57 Q2787.9 1222.47 2790.56 1222.47 L2794.93 1222.47 L2794.93 1226.04 L2790.56 1226.04 Q2785.63 1226.04 2783.75 1224.21 Q2781.88 1222.36 2781.88 1217.5 L2781.88 1203.42 L2778.75 1203.42 L2778.75 1200.11 L2781.88 1200.11 L2781.88 1192.75 L2786.16 1192.75 Z" fill="#000000" fill-rule="nonzero" fill-opacity="1" /><path clip-path="url(#clip300)" d="M2815.56 1204.09 Q2814.84 1203.68 2813.99 1203.49 Q2813.15 1203.28 2812.13 1203.28 Q2808.52 1203.28 2806.58 1205.65 Q2804.66 1207.98 2804.66 1212.38 L2804.66 1226.04 L2800.37 1226.04 L2800.37 1200.11 L2804.66 1200.11 L2804.66 1204.14 Q2806 1201.78 2808.15 1200.65 Q2810.3 1199.49 2813.38 1199.49 Q2813.82 1199.49 2814.36 1199.56 Q2814.89 1199.6 2815.54 1199.72 L2815.56 1204.09 Z" fill="#000000" fill-rule="nonzero" fill-opacity="1" /><path clip-path="url(#clip300)" d="M2819.59 1215.81 L2819.59 1200.11 L2823.85 1200.11 L2823.85 1215.65 Q2823.85 1219.33 2825.28 1221.18 Q2826.72 1223.01 2829.59 1223.01 Q2833.04 1223.01 2835.03 1220.81 Q2837.04 1218.61 2837.04 1214.81 L2837.04 1200.11 L2841.3 1200.11 L2841.3 1226.04 L2837.04 1226.04 L2837.04 1222.06 Q2835.49 1224.42 2833.43 1225.58 Q2831.39 1226.71 2828.68 1226.71 Q2824.22 1226.71 2821.9 1223.93 Q2819.59 1221.15 2819.59 1215.81 M2830.3 1199.49 L2830.3 1199.49 Z" fill="#000000" fill-rule="nonzero" fill-opacity="1" /><path clip-path="url(#clip300)" d="M2868.73 1201.11 L2868.73 1205.09 Q2866.92 1204.09 2865.1 1203.61 Q2863.29 1203.1 2861.44 1203.1 Q2857.3 1203.1 2855 1205.74 Q2852.71 1208.35 2852.71 1213.1 Q2852.71 1217.84 2855 1220.48 Q2857.3 1223.1 2861.44 1223.1 Q2863.29 1223.1 2865.1 1222.61 Q2866.92 1222.1 2868.73 1221.11 L2868.73 1225.04 Q2866.95 1225.88 2865.03 1226.29 Q2863.13 1226.71 2860.98 1226.71 Q2855.12 1226.71 2851.67 1223.03 Q2848.22 1219.35 2848.22 1213.1 Q2848.22 1206.76 2851.69 1203.12 Q2855.19 1199.49 2861.25 1199.49 Q2863.22 1199.49 2865.1 1199.9 Q2866.97 1200.3 2868.73 1201.11 Z" fill="#000000" fill-rule="nonzero" fill-opacity="1" /><path clip-path="url(#clip300)" d="M2880.35 1192.75 L2880.35 1200.11 L2889.12 1200.11 L2889.12 1203.42 L2880.35 1203.42 L2880.35 1217.5 Q2880.35 1220.67 2881.21 1221.57 Q2882.09 1222.47 2884.75 1222.47 L2889.12 1222.47 L2889.12 1226.04 L2884.75 1226.04 Q2879.82 1226.04 2877.94 1224.21 Q2876.07 1222.36 2876.07 1217.5 L2876.07 1203.42 L2872.94 1203.42 L2872.94 1200.11 L2876.07 1200.11 L2876.07 1192.75 L2880.35 1192.75 Z" fill="#000000" fill-rule="nonzero" fill-opacity="1" /><path clip-path="url(#clip300)" d="M2894.29 1215.81 L2894.29 1200.11 L2898.55 1200.11 L2898.55 1215.65 Q2898.55 1219.33 2899.98 1221.18 Q2901.42 1223.01 2904.29 1223.01 Q2907.73 1223.01 2909.73 1220.81 Q2911.74 1218.61 2911.74 1214.81 L2911.74 1200.11 L2916 1200.11 L2916 1226.04 L2911.74 1226.04 L2911.74 1222.06 Q2910.19 1224.42 2908.13 1225.58 Q2906.09 1226.71 2903.38 1226.71 Q2898.92 1226.71 2896.6 1223.93 Q2894.29 1221.15 2894.29 1215.81 M2905 1199.49 L2905 1199.49 Z" fill="#000000" fill-rule="nonzero" fill-opacity="1" /><path clip-path="url(#clip300)" d="M2939.79 1204.09 Q2939.08 1203.68 2938.22 1203.49 Q2937.39 1203.28 2936.37 1203.28 Q2932.76 1203.28 2930.81 1205.65 Q2928.89 1207.98 2928.89 1212.38 L2928.89 1226.04 L2924.61 1226.04 L2924.61 1200.11 L2928.89 1200.11 L2928.89 1204.14 Q2930.23 1201.78 2932.39 1200.65 Q2934.54 1199.49 2937.62 1199.49 Q2938.06 1199.49 2938.59 1199.56 Q2939.12 1199.6 2939.77 1199.72 L2939.79 1204.09 Z" fill="#000000" fill-rule="nonzero" fill-opacity="1" /><path clip-path="url(#clip300)" d="M2965.4 1212.01 L2965.4 1214.09 L2945.81 1214.09 Q2946.09 1218.49 2948.45 1220.81 Q2950.84 1223.1 2955.07 1223.1 Q2957.53 1223.1 2959.82 1222.5 Q2962.13 1221.9 2964.4 1220.69 L2964.4 1224.72 Q2962.11 1225.69 2959.7 1226.2 Q2957.29 1226.71 2954.82 1226.71 Q2948.61 1226.71 2944.98 1223.1 Q2941.37 1219.49 2941.37 1213.33 Q2941.37 1206.96 2944.79 1203.24 Q2948.24 1199.49 2954.08 1199.49 Q2959.31 1199.49 2962.34 1202.87 Q2965.4 1206.22 2965.4 1212.01 M2961.14 1210.76 Q2961.09 1207.27 2959.17 1205.18 Q2957.27 1203.1 2954.12 1203.1 Q2950.56 1203.1 2948.41 1205.11 Q2946.28 1207.13 2945.95 1210.78 L2961.14 1210.76 Z" fill="#000000" fill-rule="nonzero" fill-opacity="1" /><path clip-path="url(#clip300)" d="M2166.63 1241.91 Q2163.53 1247.23 2162.02 1252.44 Q2160.52 1257.65 2160.52 1262.99 Q2160.52 1268.34 2162.02 1273.6 Q2163.55 1278.83 2166.63 1284.13 L2162.92 1284.13 Q2159.45 1278.69 2157.72 1273.43 Q2156 1268.18 2156 1262.99 Q2156 1257.83 2157.72 1252.6 Q2159.43 1247.37 2162.92 1241.91 L2166.63 1241.91 Z" fill="#000000" fill-rule="nonzero" fill-opacity="1" /><path clip-path="url(#clip300)" d="M2174.54 1243.32 L2179.24 1243.32 L2179.24 1264.31 Q2179.24 1269.87 2181.26 1272.32 Q2183.27 1274.75 2187.78 1274.75 Q2192.28 1274.75 2194.29 1272.32 Q2196.3 1269.87 2196.3 1264.31 L2196.3 1243.32 L2201 1243.32 L2201 1264.89 Q2201 1271.65 2197.65 1275.1 Q2194.31 1278.55 2187.78 1278.55 Q2181.23 1278.55 2177.88 1275.1 Q2174.54 1271.65 2174.54 1264.89 L2174.54 1243.32 Z" fill="#000000" fill-rule="nonzero" fill-opacity="1" /><path clip-path="url(#clip300)" d="M2230.49 1244.45 L2230.49 1249.01 Q2227.83 1247.74 2225.47 1247.11 Q2223.11 1246.49 2220.91 1246.49 Q2217.09 1246.49 2215.01 1247.97 Q2212.95 1249.45 2212.95 1252.18 Q2212.95 1254.48 2214.31 1255.66 Q2215.7 1256.81 2219.54 1257.53 L2222.37 1258.11 Q2227.6 1259.11 2230.08 1261.63 Q2232.58 1264.13 2232.58 1268.34 Q2232.58 1273.36 2229.2 1275.96 Q2225.84 1278.55 2219.34 1278.55 Q2216.88 1278.55 2214.1 1277.99 Q2211.35 1277.44 2208.39 1276.35 L2208.39 1271.54 Q2211.23 1273.13 2213.97 1273.94 Q2216.7 1274.75 2219.34 1274.75 Q2223.34 1274.75 2225.52 1273.18 Q2227.69 1271.61 2227.69 1268.69 Q2227.69 1266.14 2226.12 1264.71 Q2224.57 1263.27 2221 1262.55 L2218.16 1262 Q2212.92 1260.96 2210.59 1258.74 Q2208.25 1256.51 2208.25 1252.55 Q2208.25 1247.97 2211.47 1245.33 Q2214.71 1242.69 2220.38 1242.69 Q2222.81 1242.69 2225.33 1243.13 Q2227.85 1243.57 2230.49 1244.45 Z" fill="#000000" fill-rule="nonzero" fill-opacity="1" /><path clip-path="url(#clip300)" d="M2252.3 1247.93 L2245.96 1265.12 L2258.66 1265.12 L2252.3 1247.93 M2249.66 1243.32 L2254.96 1243.32 L2268.13 1277.88 L2263.27 1277.88 L2260.12 1269.01 L2244.54 1269.01 L2241.4 1277.88 L2236.47 1277.88 L2249.66 1243.32 Z" fill="#000000" fill-rule="nonzero" fill-opacity="1" /><path clip-path="url(#clip300)" d="M2298.22 1245.98 L2298.22 1250.91 Q2295.86 1248.71 2293.18 1247.62 Q2290.52 1246.54 2287.51 1246.54 Q2281.58 1246.54 2278.43 1250.17 Q2275.28 1253.78 2275.28 1260.63 Q2275.28 1267.46 2278.43 1271.1 Q2281.58 1274.71 2287.51 1274.71 Q2290.52 1274.71 2293.18 1273.62 Q2295.86 1272.53 2298.22 1270.33 L2298.22 1275.22 Q2295.77 1276.88 2293.02 1277.72 Q2290.28 1278.55 2287.23 1278.55 Q2279.38 1278.55 2274.87 1273.76 Q2270.35 1268.94 2270.35 1260.63 Q2270.35 1252.3 2274.87 1247.51 Q2279.38 1242.69 2287.23 1242.69 Q2290.33 1242.69 2293.06 1243.53 Q2295.82 1244.34 2298.22 1245.98 Z" fill="#000000" fill-rule="nonzero" fill-opacity="1" /><path clip-path="url(#clip300)" d="M2305.45 1243.32 L2327.3 1243.32 L2327.3 1247.25 L2310.12 1247.25 L2310.12 1257.49 L2326.58 1257.49 L2326.58 1261.42 L2310.12 1261.42 L2310.12 1273.94 L2327.71 1273.94 L2327.71 1277.88 L2305.45 1277.88 L2305.45 1243.32 Z" fill="#000000" fill-rule="nonzero" fill-opacity="1" /><path clip-path="url(#clip300)" d="M2348.13 1262.99 L2360.61 1262.99 L2360.61 1266.79 L2348.13 1266.79 L2348.13 1262.99 Z" fill="#000000" fill-rule="nonzero" fill-opacity="1" /><path clip-path="url(#clip300)" d="M2406.21 1272.95 L2406.21 1263.67 L2398.57 1263.67 L2398.57 1259.82 L2410.84 1259.82 L2410.84 1274.66 Q2408.13 1276.58 2404.87 1277.58 Q2401.6 1278.55 2397.9 1278.55 Q2389.8 1278.55 2385.21 1273.83 Q2380.65 1269.08 2380.65 1260.63 Q2380.65 1252.16 2385.21 1247.44 Q2389.8 1242.69 2397.9 1242.69 Q2401.28 1242.69 2404.31 1243.53 Q2407.37 1244.36 2409.94 1245.98 L2409.94 1250.96 Q2407.34 1248.76 2404.43 1247.65 Q2401.51 1246.54 2398.29 1246.54 Q2391.95 1246.54 2388.76 1250.08 Q2385.58 1253.62 2385.58 1260.63 Q2385.58 1267.62 2388.76 1271.17 Q2391.95 1274.71 2398.29 1274.71 Q2400.77 1274.71 2402.71 1274.29 Q2404.66 1273.85 2406.21 1272.95 Z" fill="#000000" fill-rule="nonzero" fill-opacity="1" /><path clip-path="url(#clip300)" d="M2430.98 1264.85 Q2425.82 1264.85 2423.83 1266.03 Q2421.83 1267.21 2421.83 1270.05 Q2421.83 1272.32 2423.32 1273.67 Q2424.82 1274.99 2427.39 1274.99 Q2430.93 1274.99 2433.06 1272.49 Q2435.21 1269.96 2435.21 1265.8 L2435.21 1264.85 L2430.98 1264.85 M2439.47 1263.09 L2439.47 1277.88 L2435.21 1277.88 L2435.21 1273.94 Q2433.76 1276.3 2431.58 1277.44 Q2429.4 1278.55 2426.26 1278.55 Q2422.27 1278.55 2419.91 1276.33 Q2417.58 1274.08 2417.58 1270.33 Q2417.58 1265.96 2420.49 1263.74 Q2423.43 1261.51 2429.24 1261.51 L2435.21 1261.51 L2435.21 1261.1 Q2435.21 1258.16 2433.27 1256.56 Q2431.35 1254.94 2427.85 1254.94 Q2425.63 1254.94 2423.52 1255.47 Q2421.42 1256 2419.47 1257.07 L2419.47 1253.13 Q2421.81 1252.23 2424.01 1251.79 Q2426.21 1251.33 2428.29 1251.33 Q2433.92 1251.33 2436.7 1254.24 Q2439.47 1257.16 2439.47 1263.09 Z" fill="#000000" fill-rule="nonzero" fill-opacity="1" /><path clip-path="url(#clip300)" d="M2448.25 1241.86 L2452.51 1241.86 L2452.51 1277.88 L2448.25 1277.88 L2448.25 1241.86 Z" fill="#000000" fill-rule="nonzero" fill-opacity="1" /><path clip-path="url(#clip300)" d="M2458.36 1251.95 L2462.88 1251.95 L2470.98 1273.71 L2479.08 1251.95 L2483.59 1251.95 L2473.87 1277.88 L2468.08 1277.88 L2458.36 1251.95 Z" fill="#000000" fill-rule="nonzero" fill-opacity="1" /><path clip-path="url(#clip300)" d="M2511.65 1263.85 L2511.65 1265.93 L2492.07 1265.93 Q2492.34 1270.33 2494.7 1272.65 Q2497.09 1274.94 2501.32 1274.94 Q2503.78 1274.94 2506.07 1274.34 Q2508.39 1273.74 2510.65 1272.53 L2510.65 1276.56 Q2508.36 1277.53 2505.95 1278.04 Q2503.55 1278.55 2501.07 1278.55 Q2494.87 1278.55 2491.23 1274.94 Q2487.62 1271.33 2487.62 1265.17 Q2487.62 1258.8 2491.05 1255.08 Q2494.5 1251.33 2500.33 1251.33 Q2505.56 1251.33 2508.59 1254.71 Q2511.65 1258.06 2511.65 1263.85 M2507.39 1262.6 Q2507.34 1259.11 2505.42 1257.02 Q2503.52 1254.94 2500.38 1254.94 Q2496.81 1254.94 2494.66 1256.95 Q2492.53 1258.97 2492.2 1262.62 L2507.39 1262.6 Z" fill="#000000" fill-rule="nonzero" fill-opacity="1" /><path clip-path="url(#clip300)" d="M2535.17 1252.72 L2535.17 1256.74 Q2533.36 1255.82 2531.42 1255.36 Q2529.47 1254.89 2527.39 1254.89 Q2524.22 1254.89 2522.62 1255.86 Q2521.05 1256.84 2521.05 1258.78 Q2521.05 1260.26 2522.18 1261.12 Q2523.32 1261.95 2526.74 1262.72 L2528.2 1263.04 Q2532.74 1264.01 2534.63 1265.8 Q2536.56 1267.55 2536.56 1270.73 Q2536.56 1274.34 2533.69 1276.44 Q2530.84 1278.55 2525.84 1278.55 Q2523.76 1278.55 2521.49 1278.13 Q2519.24 1277.74 2516.74 1276.93 L2516.74 1272.53 Q2519.1 1273.76 2521.39 1274.38 Q2523.69 1274.99 2525.93 1274.99 Q2528.94 1274.99 2530.56 1273.97 Q2532.18 1272.92 2532.18 1271.05 Q2532.18 1269.31 2531 1268.39 Q2529.84 1267.46 2525.89 1266.61 L2524.4 1266.26 Q2520.45 1265.43 2518.69 1263.71 Q2516.93 1261.98 2516.93 1258.97 Q2516.93 1255.31 2519.52 1253.32 Q2522.11 1251.33 2526.88 1251.33 Q2529.24 1251.33 2531.32 1251.68 Q2533.41 1252.02 2535.17 1252.72 Z" fill="#000000" fill-rule="nonzero" fill-opacity="1" /><path clip-path="url(#clip300)" d="M2547.55 1244.59 L2547.55 1251.95 L2556.32 1251.95 L2556.32 1255.26 L2547.55 1255.26 L2547.55 1269.34 Q2547.55 1272.51 2548.41 1273.41 Q2549.29 1274.31 2551.95 1274.31 L2556.32 1274.31 L2556.32 1277.88 L2551.95 1277.88 Q2547.02 1277.88 2545.14 1276.05 Q2543.27 1274.2 2543.27 1269.34 L2543.27 1255.26 L2540.14 1255.26 L2540.14 1251.95 L2543.27 1251.95 L2543.27 1244.59 L2547.55 1244.59 Z" fill="#000000" fill-rule="nonzero" fill-opacity="1" /><path clip-path="url(#clip300)" d="M2571.97 1254.94 Q2568.55 1254.94 2566.56 1257.62 Q2564.57 1260.29 2564.57 1264.94 Q2564.57 1269.59 2566.53 1272.28 Q2568.52 1274.94 2571.97 1274.94 Q2575.38 1274.94 2577.37 1272.25 Q2579.36 1269.57 2579.36 1264.94 Q2579.36 1260.33 2577.37 1257.65 Q2575.38 1254.94 2571.97 1254.94 M2571.97 1251.33 Q2577.53 1251.33 2580.7 1254.94 Q2583.87 1258.55 2583.87 1264.94 Q2583.87 1271.3 2580.7 1274.94 Q2577.53 1278.55 2571.97 1278.55 Q2566.39 1278.55 2563.22 1274.94 Q2560.07 1271.3 2560.07 1264.94 Q2560.07 1258.55 2563.22 1254.94 Q2566.39 1251.33 2571.97 1251.33 Z" fill="#000000" fill-rule="nonzero" fill-opacity="1" /><path clip-path="url(#clip300)" d="M2612.48 1262.23 L2612.48 1277.88 L2608.22 1277.88 L2608.22 1262.37 Q2608.22 1258.69 2606.79 1256.86 Q2605.35 1255.03 2602.48 1255.03 Q2599.03 1255.03 2597.04 1257.23 Q2595.05 1259.43 2595.05 1263.23 L2595.05 1277.88 L2590.77 1277.88 L2590.77 1251.95 L2595.05 1251.95 L2595.05 1255.98 Q2596.58 1253.64 2598.64 1252.49 Q2600.72 1251.33 2603.43 1251.33 Q2607.9 1251.33 2610.19 1254.11 Q2612.48 1256.86 2612.48 1262.23 Z" fill="#000000" fill-rule="nonzero" fill-opacity="1" /><path clip-path="url(#clip300)" d="M2620.31 1241.91 L2624.01 1241.91 Q2627.48 1247.37 2629.19 1252.6 Q2630.93 1257.83 2630.93 1262.99 Q2630.93 1268.18 2629.19 1273.43 Q2627.48 1278.69 2624.01 1284.13 L2620.31 1284.13 Q2623.38 1278.83 2624.89 1273.6 Q2626.42 1268.34 2626.42 1262.99 Q2626.42 1257.65 2624.89 1252.44 Q2623.38 1247.23 2620.31 1241.91 Z" fill="#000000" fill-rule="nonzero" fill-opacity="1" /></svg>
